<svg xmlns="http://www.w3.org/2000/svg" height="1024" preserveAspectRatio="none" style="display: block;" version="1.1" viewBox="0 0 2048 2048" width="1024"><defs><clipPath id="circleClip"><circle cx="1024" cy="1024" r="1024"/></clipPath></defs><g clip-path="url(#circleClip)">
<defs>
	<linearGradient gradientUnits="userSpaceOnUse" id="Gradient1" x1="841.113" x2="965.526" y1="292.751" y2="470.031">
		<stop class="stop0" offset="0" stop-color="rgb(255,213,247)" stop-opacity="1"></stop>
		<stop class="stop1" offset="1" stop-color="rgb(224,227,251)" stop-opacity="1"></stop>
	</linearGradient>
	<linearGradient gradientUnits="userSpaceOnUse" id="Gradient2" x1="213.823" x2="220.631" y1="679.591" y2="680.349">
		<stop class="stop0" offset="0" stop-color="rgb(0,0,0)" stop-opacity="1"></stop>
		<stop class="stop1" offset="1" stop-color="rgb(12,12,35)" stop-opacity="1"></stop>
	</linearGradient>
	<linearGradient gradientUnits="userSpaceOnUse" id="Gradient3" x1="215.889" x2="332.65" y1="729.631" y2="703.609">
		<stop class="stop0" offset="0" stop-color="rgb(7,5,15)" stop-opacity="1"></stop>
		<stop class="stop1" offset="1" stop-color="rgb(12,9,35)" stop-opacity="1"></stop>
	</linearGradient>
	<linearGradient gradientUnits="userSpaceOnUse" id="Gradient4" x1="324.716" x2="345.66" y1="522.453" y2="536.461">
		<stop class="stop0" offset="0" stop-color="rgb(1,2,2)" stop-opacity="1"></stop>
		<stop class="stop1" offset="1" stop-color="rgb(35,15,28)" stop-opacity="1"></stop>
	</linearGradient>
	<linearGradient gradientUnits="userSpaceOnUse" id="Gradient5" x1="707.817" x2="2154.74" y1="968.738" y2="686.303">
		<stop class="stop0" offset="0" stop-color="rgb(225,221,249)" stop-opacity="1"></stop>
		<stop class="stop1" offset="1" stop-color="rgb(255,255,255)" stop-opacity="1"></stop>
	</linearGradient>
	<linearGradient gradientUnits="userSpaceOnUse" id="Gradient6" x1="537.513" x2="530.374" y1="1635.23" y2="1651.21">
		<stop class="stop0" offset="0" stop-color="rgb(137,60,75)" stop-opacity="1"></stop>
		<stop class="stop1" offset="1" stop-color="rgb(169,87,98)" stop-opacity="1"></stop>
	</linearGradient>
</defs>
<path d="M 0 0 L 1196.44 0 L 1230.41 0 L 1264.61 0 L 1266.56 0 L 1320.53 0 L 1531.32 0 L 1598.56 0 L 1623.93 0 L 1716.03 0 L 2048 0 L 2048 114.289 L 2048 285.064 L 2048 328.92 L 2048 394.75 L 2048 582.111 L 2048 661.463 L 2048 665.638 L 2048 686.071 L 2048 1019.84 L 2048 1284.68 C 2023.48 1285.72 1999.14 1287.32 1974.58 1288.28 C 1937.38 1289.73 1897.52 1290.4 1860.5 1294.63 C 1862.49 1299.59 1868.09 1312.17 1868 1316.59 C 1852.66 1329.2 1845.05 1335.09 1826.64 1342.83 C 1807.26 1348.79 1785.67 1353.25 1766.62 1343.42 C 1765.78 1342.99 1764.95 1342.54 1764.13 1342.09 C 1763.88 1344.54 1763.48 1347.45 1763.48 1349.87 C 1760.66 1355.05 1758.53 1364.04 1756.87 1370 C 1750.75 1388.62 1743.44 1414.67 1737.02 1431.93 C 1721.65 1425.67 1707.91 1418.44 1692.96 1411.66 C 1695.53 1458.13 1626.68 1496.69 1607.75 1534.01 L 1607.32 1533.96 C 1603.32 1539.31 1597.09 1547.01 1593.65 1552.32 C 1621.36 1568.73 1649.2 1590.6 1675.75 1609.14 C 1693.16 1621.3 1711.6 1632.28 1728.73 1644.24 C 1738.68 1646.25 1749.22 1647.03 1759.2 1648.95 C 1854.9 1667.76 1951.22 1683.23 2048 1695.33 L 2048 1779.03 L 2048 1804.85 L 2048 1876.54 L 2048 2048 L 0 2048 L 0 1768.84 L 0 1506.96 L 0 1465.37 L 0 1444.41 L 0 1402.65 L 0 1287.98 L 0 1271.3 L 0 1269.21 L 0 1187.12 L 0 1141.06 L 0 889.45 L 0 609.923 L 0 0 z" fill="rgb(210,235,250)" transform="translate(0,0)"></path>
<path d="M 1426.26 790.531 C 1465.63 771.615 1506.52 748.663 1548.75 738.111 C 1564.55 734.163 1583.64 748.661 1588.32 763.022 C 1596.66 788.561 1594.58 822.572 1591.53 849.167 L 1591.12 850.307 C 1585.58 880.849 1574.44 919.681 1555.29 944.514 C 1557.1 944.902 1559.86 945.324 1561.41 946.093 L 1561.78 948.376 C 1560.01 953.398 1576.35 1026.54 1578.9 1035.06 C 1582.14 1045.87 1586.2 1056.43 1591.03 1066.64 L 1591.63 1067.88 C 1593.93 1071.27 1607.9 1091.4 1608.75 1093.19 C 1623.67 1108.05 1634 1118.35 1652.47 1128.82 C 1655.56 1131.45 1660.64 1131.65 1664.85 1132.29 C 1694.89 1183.43 1718.59 1236.47 1744.86 1289.57 C 1747.52 1294.94 1750.25 1300.8 1752.64 1306.3 C 1757.12 1315.51 1764.52 1331.96 1764.13 1342.09 C 1763.88 1344.54 1763.48 1347.45 1763.48 1349.87 C 1760.66 1355.05 1758.53 1364.04 1756.87 1370 C 1750.75 1388.62 1743.44 1414.67 1737.02 1431.93 C 1721.65 1425.67 1707.91 1418.44 1692.96 1411.66 C 1695.53 1458.13 1626.68 1496.69 1607.75 1534.01 L 1607.32 1533.96 C 1603.32 1539.31 1597.09 1547.01 1593.65 1552.32 C 1621.36 1568.73 1649.2 1590.6 1675.75 1609.14 C 1693.16 1621.3 1711.6 1632.28 1728.73 1644.24 C 1738.68 1646.25 1749.22 1647.03 1759.2 1648.95 C 1854.9 1667.76 1951.22 1683.23 2048 1695.33 L 2048 1779.03 L 2048 1804.85 L 2048 1876.54 L 2048 2048 L 0 2048 L 0 1768.84 L 0 1506.96 L 0 1465.37 L 0 1444.41 L 0 1402.65 L 0 1287.98 L 0 1271.3 L 0 1269.21 L 0 1187.12 L 0 1141.06 L 0 889.45 C 47.9985 842.828 104.145 801.677 162.053 768.244 C 179.664 758.077 206.339 753.807 220.098 745.284 C 222.755 748.45 222.59 753.537 222.991 757.882 C 223.928 767.51 222.372 774.943 228.559 781.937 C 232.758 785.079 231.981 801.074 231.194 806.033 C 235.922 806.092 238.421 804.957 242.849 803.369 C 247.14 802.858 254.278 802.385 257.962 800.84 C 264.222 798.766 277.954 798.453 285.635 797.341 C 316.914 801.757 359.232 791.141 382.243 819.419 C 411.108 854.891 418.174 957.044 392.658 993.439 C 387.078 1002.49 379.552 1015.48 372.118 1022.6 C 373.24 1024.9 373.07 1024.97 375.07 1026.47 C 398.447 1041.66 422.908 1055.11 448.256 1066.71 C 455.233 1069.9 491.349 1085.16 496.164 1088.21 C 507.826 1093.48 595.802 1135.36 601.593 1135.64 C 604.139 1136.25 607.286 1137.4 609.267 1139.2 C 625.114 1147.35 641.63 1154.29 656.948 1162.19 C 656.157 1159.1 655.693 1155.27 655.194 1152.06 C 656.937 1133.56 658.601 1128.77 667.81 1112.31 C 695.642 1065.01 749.751 1023.35 799.966 1002.08 C 812.3 996.858 825.227 991.271 838.393 988.7 C 851.041 984.58 865.679 982.472 878.77 980.698 C 884.93 979.864 900.412 979.474 904.775 977.727 C 929.529 987.849 952.63 1003.24 973.582 1019.58 C 979.133 1023.9 996.819 1037.84 1002.52 1041.07 C 1014.12 1038.45 1025.3 1033.56 1036.56 1029.97 C 1073.16 1018.33 1107.93 999.508 1144.07 987.255 C 1151.62 983.489 1179.15 955.892 1187.87 948.065 C 1202.51 935.022 1217.59 922.47 1233.07 910.43 C 1271.86 880.444 1309.13 859.949 1350.03 834.735 C 1358.96 830.251 1371.36 822.284 1380.51 816.989 C 1395.57 808.276 1411.43 799.509 1426.26 790.531 z" fill="rgb(241,247,252)" transform="translate(0,0)"></path>
<path d="M 1426.26 790.531 C 1465.63 771.615 1506.52 748.663 1548.75 738.111 C 1564.55 734.163 1583.64 748.661 1588.32 763.022 C 1596.66 788.561 1594.58 822.572 1591.53 849.167 L 1591.12 850.307 C 1585.58 880.849 1574.44 919.681 1555.29 944.514 C 1557.1 944.902 1559.86 945.324 1561.41 946.093 L 1561.78 948.376 C 1560.01 953.398 1576.35 1026.54 1578.9 1035.06 C 1582.14 1045.87 1586.2 1056.43 1591.03 1066.64 L 1591.63 1067.88 C 1593.93 1071.27 1607.9 1091.4 1608.75 1093.19 C 1623.67 1108.05 1634 1118.35 1652.47 1128.82 C 1655.56 1131.45 1660.64 1131.65 1664.85 1132.29 C 1694.89 1183.43 1718.59 1236.47 1744.86 1289.57 C 1747.52 1294.94 1750.25 1300.8 1752.64 1306.3 C 1757.12 1315.51 1764.52 1331.96 1764.13 1342.09 C 1763.88 1344.54 1763.48 1347.45 1763.48 1349.87 C 1760.66 1355.05 1758.53 1364.04 1756.87 1370 C 1750.75 1388.62 1743.44 1414.67 1737.02 1431.93 C 1721.65 1425.67 1707.91 1418.44 1692.96 1411.66 C 1695.53 1458.13 1626.68 1496.69 1607.75 1534.01 L 1607.32 1533.96 C 1603.32 1539.31 1597.09 1547.01 1593.65 1552.32 C 1501.52 1509.83 1405.88 1503.4 1306.3 1504.31 C 1255.04 1504.78 1212.23 1503.04 1161.91 1493.65 C 1154.9 1489.93 1149.61 1487.02 1142.13 1484.42 C 1034.77 1424.2 931.627 1468.23 819.221 1441.48 C 789.571 1434.42 764.113 1409.05 749.535 1383.07 C 740.259 1363.62 735.159 1353.3 731.062 1331.98 C 730.494 1328.4 729.629 1320.55 728.032 1317.75 C 727.98 1312.09 726.181 1287.31 723.073 1283.79 C 724.148 1266.82 708.626 1228.81 703.348 1210.94 C 699.659 1204.97 697.988 1202.65 692.755 1197.79 C 682.948 1188.67 674.396 1179.05 666.38 1168.33 C 663.74 1167.01 659.544 1163.95 656.948 1162.19 C 656.157 1159.1 655.693 1155.27 655.194 1152.06 C 656.937 1133.56 658.601 1128.77 667.81 1112.31 C 695.642 1065.01 749.751 1023.35 799.966 1002.08 C 812.3 996.858 825.227 991.271 838.393 988.7 C 851.041 984.58 865.679 982.472 878.77 980.698 C 884.93 979.864 900.412 979.474 904.775 977.727 C 929.529 987.849 952.63 1003.24 973.582 1019.58 C 979.133 1023.9 996.819 1037.84 1002.52 1041.07 C 1014.12 1038.45 1025.3 1033.56 1036.56 1029.97 C 1073.16 1018.33 1107.93 999.508 1144.07 987.255 C 1151.62 983.489 1179.15 955.892 1187.87 948.065 C 1202.51 935.022 1217.59 922.47 1233.07 910.43 C 1271.86 880.444 1309.13 859.949 1350.03 834.735 C 1358.96 830.251 1371.36 822.284 1380.51 816.989 C 1395.57 808.276 1411.43 799.509 1426.26 790.531 z" fill="rgb(196,131,173)" transform="translate(0,0)"></path>
<path d="M 1591.63 1067.88 C 1593.93 1071.27 1607.9 1091.4 1608.75 1093.19 C 1623.67 1108.05 1634 1118.35 1652.47 1128.82 C 1655.56 1131.45 1660.64 1131.65 1664.85 1132.29 C 1694.89 1183.43 1718.59 1236.47 1744.86 1289.57 C 1747.52 1294.94 1750.25 1300.8 1752.64 1306.3 C 1757.12 1315.51 1764.52 1331.96 1764.13 1342.09 C 1763.88 1344.54 1763.48 1347.45 1763.48 1349.87 C 1760.66 1355.05 1758.53 1364.04 1756.87 1370 C 1750.75 1388.62 1743.44 1414.67 1737.02 1431.93 C 1721.65 1425.67 1707.91 1418.44 1692.96 1411.66 C 1677.07 1404.36 1661.69 1395.79 1645.82 1388.21 C 1628.8 1380.09 1605.86 1372.37 1589.92 1363.49 C 1584.92 1361.7 1580.04 1359.62 1575.19 1357.47 C 1556.78 1349.31 1537.76 1342.59 1519.24 1334.68 C 1505.22 1330.48 1486.52 1322.73 1472.62 1317.44 C 1450.73 1309.08 1428.74 1300.99 1406.65 1293.17 C 1371.18 1280.43 1335.97 1267.16 1300.21 1255.21 C 1293.84 1253.09 1287.28 1250.7 1281.18 1247.92 C 1316.54 1219.79 1360.08 1177.92 1391.23 1145.34 C 1402.09 1134.09 1415.77 1117.07 1426.21 1104.86 C 1430.85 1106.44 1575.48 1071.99 1591.63 1067.88 z" fill="rgb(129,187,255)" transform="translate(0,0)"></path>
<path d="M 1530.82 1282.92 C 1545 1283.74 1559.23 1284.16 1573.35 1285.79 C 1595.18 1288.3 1745.74 1311.03 1752.64 1306.3 C 1757.12 1315.51 1764.52 1331.96 1764.13 1342.09 C 1763.88 1344.54 1763.48 1347.45 1763.48 1349.87 C 1760.66 1355.05 1758.53 1364.04 1756.87 1370 C 1750.75 1388.62 1743.44 1414.67 1737.02 1431.93 C 1721.65 1425.67 1707.91 1418.44 1692.96 1411.66 C 1677.07 1404.36 1661.69 1395.79 1645.82 1388.21 C 1628.8 1380.09 1605.86 1372.37 1589.92 1363.49 C 1584.92 1361.7 1580.04 1359.62 1575.19 1357.47 C 1556.78 1349.31 1537.76 1342.59 1519.24 1334.68 C 1533.33 1330.22 1621.01 1319.43 1624.98 1313.06 C 1622.22 1310.64 1614.15 1308.9 1610.12 1307.54 C 1596.3 1302.79 1582.42 1298.39 1568.47 1294.06 C 1556.51 1290.34 1541.99 1288.01 1530.82 1282.92 z" fill="rgb(210,235,250)" transform="translate(0,0)"></path>
<path d="M 1589.92 1363.49 C 1606.9 1360.87 1654.7 1369.13 1675.07 1367.59 C 1680.81 1367.16 1756.48 1369.84 1756.87 1370 C 1750.75 1388.62 1743.44 1414.67 1737.02 1431.93 C 1721.65 1425.67 1707.91 1418.44 1692.96 1411.66 C 1677.07 1404.36 1661.69 1395.79 1645.82 1388.21 C 1628.8 1380.09 1605.86 1372.37 1589.92 1363.49 z" fill="rgb(129,187,255)" transform="translate(0,0)"></path>
<path d="M 1591.63 1067.88 C 1593.93 1071.27 1607.9 1091.4 1608.75 1093.19 C 1599.69 1096.88 1587.81 1099.48 1578.21 1101.92 C 1521.26 1116.39 1464.89 1133.11 1406.9 1143.14 C 1401.76 1144.03 1396.41 1144.99 1391.23 1145.34 C 1402.09 1134.09 1415.77 1117.07 1426.21 1104.86 C 1430.85 1106.44 1575.48 1071.99 1591.63 1067.88 z" fill="rgb(210,235,250)" transform="translate(0,0)"></path>
<path d="M 1555.29 944.514 C 1557.1 944.902 1559.86 945.324 1561.41 946.093 L 1561.78 948.376 C 1560.01 953.398 1576.35 1026.54 1578.9 1035.06 C 1582.14 1045.87 1586.2 1056.43 1591.03 1066.64 L 1591.63 1067.88 C 1575.48 1071.99 1430.85 1106.44 1426.21 1104.86 C 1464.93 1058.09 1497.19 1005.79 1535.08 958.538 C 1537.16 955.94 1551.35 947.252 1555.29 944.514 z" fill="rgb(241,247,252)" transform="translate(0,0)"></path>
<path d="M 1002.52 1041.07 C 1014.12 1038.45 1025.3 1033.56 1036.56 1029.97 C 1073.16 1018.33 1107.93 999.508 1144.07 987.255 C 1138.9 993.88 1131.11 1000.27 1125.29 1006.67 C 1105.19 1028.79 1082.43 1047.65 1061.19 1068.21 C 1051.29 1066.83 1041.38 1065.57 1031.45 1064.43 C 1023.21 1057.97 1009.98 1048.03 1002.52 1041.07 z" fill="rgb(210,235,250)" transform="translate(0,0)"></path>
<path d="M 496.164 1088.21 C 507.826 1093.48 595.802 1135.36 601.593 1135.64 C 604.139 1136.25 607.286 1137.4 609.267 1139.2 C 625.114 1147.35 641.63 1154.29 656.948 1162.19 C 659.544 1163.95 663.74 1167.01 666.38 1168.33 C 674.396 1179.05 682.948 1188.67 692.755 1197.79 C 697.988 1202.65 699.659 1204.97 703.348 1210.94 C 708.626 1228.81 724.148 1266.82 723.073 1283.79 C 726.181 1287.31 727.98 1312.09 728.032 1317.75 C 729.629 1320.55 730.494 1328.4 731.062 1331.98 C 735.159 1353.3 740.259 1363.62 749.535 1383.07 C 764.113 1409.05 789.571 1434.42 819.221 1441.48 C 931.627 1468.23 1034.77 1424.2 1142.13 1484.42 C 1149.61 1487.02 1154.9 1489.93 1161.91 1493.65 C 1212.23 1503.04 1255.04 1504.78 1306.3 1504.31 C 1405.88 1503.4 1501.52 1509.83 1593.65 1552.32 C 1621.36 1568.73 1649.2 1590.6 1675.75 1609.14 C 1693.16 1621.3 1711.6 1632.28 1728.73 1644.24 C 1646.92 1647.14 1558.35 1667.78 1480.48 1691.92 C 1465.98 1697.99 1445.91 1702 1430.56 1706.97 C 1351.09 1732.68 1269.38 1754.53 1185.1 1745.87 C 1171.96 1744.52 1158.88 1741.89 1145.71 1740.75 C 1143.41 1740.54 1137.1 1741.41 1133.91 1741.55 C 1132.09 1742.45 1121.25 1747.91 1120 1748.23 C 1088.73 1762.79 1060.15 1771.36 1025.2 1760.25 C 1023.67 1761.25 1021.53 1762.09 1019.76 1762.03 C 1001.2 1761.41 984.248 1760.49 965.663 1761.16 C 932.872 1762.33 899.844 1767.75 867.257 1765.83 C 811.345 1762.54 761.641 1730.05 715.712 1700.77 C 701.708 1691.85 681.133 1678.96 668.584 1669.03 C 673.112 1666.26 678.14 1664.28 678.887 1658.59 C 678.093 1655.07 676.975 1654.58 674.217 1652.22 C 671.422 1649.67 669.6 1648.58 666.402 1646.5 L 664.801 1644.17 L 665.328 1642.96 C 667.674 1640.77 666.863 1641.55 668.222 1638.28 C 638.769 1599.54 607.96 1584.16 570.138 1556.43 C 536.75 1531.95 552.468 1530.5 509.475 1545.38 C 495.452 1550.23 458.012 1553.01 443.542 1552.96 C 440.375 1546.58 435.702 1539.11 431.926 1532.88 C 393.543 1469.51 375.108 1400.01 347.572 1331.4 C 342.123 1319.16 335.543 1307.84 329.774 1295.72 L 329.243 1295.28 C 323.661 1270.11 327.019 1250.72 327.142 1225.08 C 327.14 1204.41 326.427 1183.74 325.003 1163.11 C 330.85 1163.06 337.279 1162.53 343.131 1162.07 C 400.51 1157.55 458.297 1154.4 515.624 1149.47 C 510.361 1135.64 498.812 1102.44 496.164 1088.21 z" fill="rgb(129,187,255)" transform="translate(0,0)"></path>
<path d="M 1120 1748.23 C 1116.39 1748.22 1109.24 1750.15 1105.52 1751.18 C 1073.64 1760.24 1037.71 1758.45 1010.78 1736.73 C 917.974 1661.9 993.78 1480.41 1111.69 1494.71 C 1115.81 1495.21 1120.16 1496.53 1124.16 1497.74 C 1164.3 1509.84 1198.29 1550.08 1202.29 1591.21 C 1203.49 1608.9 1205.11 1627.96 1199.57 1645.01 C 1228.45 1647.86 1257.96 1650.21 1286.68 1654.44 C 1334.09 1661.43 1381.27 1671.79 1428.27 1681.21 C 1437.78 1683.12 1474.05 1688.99 1480.48 1691.92 C 1465.98 1697.99 1445.91 1702 1430.56 1706.97 C 1351.09 1732.68 1269.38 1754.53 1185.1 1745.87 C 1171.96 1744.52 1158.88 1741.89 1145.71 1740.75 C 1143.41 1740.54 1137.1 1741.41 1133.91 1741.55 C 1132.09 1742.45 1121.25 1747.91 1120 1748.23 z" fill="rgb(210,235,250)" transform="translate(0,0)"></path>
<path d="M 1017.77 1718.71 C 930.742 1649.65 1023.58 1469.39 1131.81 1518.44 C 1152.75 1527.93 1167.65 1551.81 1174.78 1572.87 C 1185.36 1606.88 1182.67 1638.53 1166.8 1670.39 C 1140.26 1723.67 1070.69 1758.53 1017.77 1718.71 z" fill="rgb(129,187,255)" transform="translate(0,0)"></path>
<path d="M 1017.77 1718.71 C 930.742 1649.65 1023.58 1469.39 1131.81 1518.44 C 1152.75 1527.93 1167.65 1551.81 1174.78 1572.87 C 1128.41 1537.03 1074.94 1550.45 1040.56 1595.56 C 1017.27 1626.12 1008.93 1662.16 1014.32 1699.99 C 1015.06 1705.17 1017.35 1714.65 1017.77 1718.71 z" fill="rgb(80,109,177)" transform="translate(0,0)"></path>
<path d="M 749.535 1383.07 C 764.113 1409.05 789.571 1434.42 819.221 1441.48 C 931.627 1468.23 1034.77 1424.2 1142.13 1484.42 C 1116.13 1481.04 1098.19 1479.18 1072.56 1486.96 C 1012.51 1505.19 978.189 1556 962.552 1614.19 C 959.97 1613.59 939.799 1603.99 935.983 1602.32 C 908.596 1590.37 881.888 1577.13 854.965 1564.26 C 809.27 1542.76 763.464 1521.5 717.55 1500.47 C 679.262 1482.5 643.268 1464.18 604.236 1447.31 C 605.771 1444.3 608.372 1439.4 610.19 1436.8 C 633.895 1402.94 710.368 1389.61 749.535 1383.07 z" fill="rgb(210,235,250)" transform="translate(0,0)"></path>
<path d="M 496.164 1088.21 C 507.826 1093.48 595.802 1135.36 601.593 1135.64 C 604.139 1136.25 607.286 1137.4 609.267 1139.2 C 625.114 1147.35 641.63 1154.29 656.948 1162.19 C 659.544 1163.95 663.74 1167.01 666.38 1168.33 C 674.396 1179.05 682.948 1188.67 692.755 1197.79 C 697.988 1202.65 699.659 1204.97 703.348 1210.94 C 708.626 1228.81 724.148 1266.82 723.073 1283.79 C 726.181 1287.31 727.98 1312.09 728.032 1317.75 C 690.381 1306.08 652.614 1291.84 615.426 1278.67 C 604.436 1274.78 560.248 1261.61 555.798 1254.77 C 541.557 1224.66 526.333 1180.78 515.624 1149.47 C 510.361 1135.64 498.812 1102.44 496.164 1088.21 z" fill="rgb(101,45,64)" transform="translate(0,0)"></path>
<path d="M 723.073 1283.79 C 694.902 1269.66 645.551 1224.57 625.852 1198.9 C 621.624 1193.39 609.341 1147.61 609.267 1139.2 C 625.114 1147.35 641.63 1154.29 656.948 1162.19 C 659.544 1163.95 663.74 1167.01 666.38 1168.33 C 674.396 1179.05 682.948 1188.67 692.755 1197.79 C 697.988 1202.65 699.659 1204.97 703.348 1210.94 C 708.626 1228.81 724.148 1266.82 723.073 1283.79 z" fill="rgb(129,187,255)" transform="translate(0,0)"></path>
<path d="M 779.536 1621.89 C 792.339 1626.53 819.116 1644.38 832.424 1652.12 L 931.479 1709.75 C 948.689 1719.81 973.248 1734.96 990.76 1743.72 C 1000.34 1751.5 1013.57 1756.22 1025.2 1760.25 C 1023.67 1761.25 1021.53 1762.09 1019.76 1762.03 C 1001.2 1761.41 984.248 1760.49 965.663 1761.16 C 932.872 1762.33 899.844 1767.75 867.257 1765.83 C 811.345 1762.54 761.641 1730.05 715.712 1700.77 C 701.708 1691.85 681.133 1678.96 668.584 1669.03 C 673.112 1666.26 678.14 1664.28 678.887 1658.59 C 678.093 1655.07 676.975 1654.58 674.217 1652.22 C 671.422 1649.67 669.6 1648.58 666.402 1646.5 L 664.801 1644.17 L 665.328 1642.96 C 667.674 1640.77 666.863 1641.55 668.222 1638.28 C 668.462 1637.88 668.67 1637.45 668.943 1637.07 C 675.322 1628.11 763.131 1623.51 779.536 1621.89 z" fill="rgb(210,235,250)" transform="translate(0,0)"></path>
<path d="M 329.774 1295.72 C 356.904 1295.23 386.339 1298.62 412.199 1306.56 C 406.315 1320.47 403.615 1327.65 402.007 1342.67 C 382.442 1337.87 367.29 1334.89 347.572 1331.4 C 342.123 1319.16 335.543 1307.84 329.774 1295.72 z" fill="rgb(210,235,250)" transform="translate(0,0)"></path>
<path d="M 0 1768.84 C 74.2449 1745.36 104.821 1782.7 153.544 1831.05 C 222.673 1899.64 310.487 1927.12 404.732 1941.5 C 534.44 1961.29 664.382 1954.12 794.625 1944.37 C 914.375 1935.25 1029.83 1929.65 1147.98 1956.68 C 1210.4 1970.02 1272.57 1992.61 1337.28 1989.69 C 1364.86 1988.44 1395.08 1979.53 1422.24 1973.26 C 1483.49 1959.12 1545.18 1947.75 1608.34 1949.81 C 1648.22 1951.11 1688.02 1955.12 1727.99 1952.75 C 1801.51 1947.47 1872.75 1922 1942.95 1902.83 C 1963.04 1897.43 1983.2 1892.28 2003.43 1887.39 C 2017.26 1884.14 2034.26 1880.77 2047.57 1876.68 L 2048 1876.54 L 2048 2048 L 0 2048 L 0 1768.84 z" fill="rgb(210,235,250)" transform="translate(0,0)"></path>
<path d="M 0 889.45 C 47.9985 842.828 104.145 801.677 162.053 768.244 C 179.664 758.077 206.339 753.807 220.098 745.284 C 222.755 748.45 222.59 753.537 222.991 757.882 C 223.928 767.51 222.372 774.943 228.559 781.937 C 232.758 785.079 231.981 801.074 231.194 806.033 C 235.922 806.092 238.421 804.957 242.849 803.369 C 247.14 802.858 254.278 802.385 257.962 800.84 C 264.222 798.766 277.954 798.453 285.635 797.341 C 316.914 801.757 359.232 791.141 382.243 819.419 C 411.108 854.891 418.174 957.044 392.658 993.439 C 387.078 1002.49 379.552 1015.48 372.118 1022.6 C 373.24 1024.9 373.07 1024.97 375.07 1026.47 C 398.447 1041.66 422.908 1055.11 448.256 1066.71 C 455.233 1069.9 491.349 1085.16 496.164 1088.21 C 498.812 1102.44 510.361 1135.64 515.624 1149.47 C 458.297 1154.4 400.51 1157.55 343.131 1162.07 C 337.279 1162.53 330.85 1163.06 325.003 1163.11 C 326.427 1183.74 327.14 1204.41 327.142 1225.08 C 327.019 1250.72 323.661 1270.11 329.243 1295.28 L 329.774 1295.72 C 335.543 1307.84 342.123 1319.16 347.572 1331.4 C 375.108 1400.01 393.543 1469.51 431.926 1532.88 C 435.702 1539.11 440.375 1546.58 443.542 1552.96 C 458.012 1553.01 495.452 1550.23 509.475 1545.38 C 552.468 1530.5 536.75 1531.95 570.138 1556.43 C 607.96 1584.16 638.769 1599.54 668.222 1638.28 C 666.863 1641.55 667.674 1640.77 665.328 1642.96 L 664.801 1644.17 L 666.402 1646.5 C 669.6 1648.58 671.422 1649.67 674.217 1652.22 C 676.975 1654.58 678.093 1655.07 678.887 1658.59 C 678.14 1664.28 673.112 1666.26 668.584 1669.03 C 654.644 1671.41 652.785 1665.69 640.731 1664.56 C 623.849 1682.74 605.746 1670.85 587.275 1667.49 L 586.101 1667.29 C 578.897 1667.22 561.196 1668.82 556.209 1664.63 L 554.721 1661.94 L 553.076 1661.62 C 550.698 1664.8 550.026 1665.93 547.017 1668.41 C 545.133 1670.59 544.239 1671.09 543.904 1673.89 L 544.23 1674.56 C 527.781 1679.06 509.352 1666.75 494.19 1659.53 L 492.85 1659.29 C 465.519 1654.33 439.36 1660.61 412.006 1653.05 C 385.214 1645.65 374.834 1623.03 361.454 1600.85 C 344.376 1572.55 330.867 1542.51 313.96 1514.05 C 307.184 1500.75 297.7 1485.76 290.381 1471.96 C 288.694 1470.34 278.431 1452.38 276.781 1449.56 C 250.368 1404.42 232.455 1368.64 221.633 1317.09 C 219.713 1303.57 218.046 1291.53 216.959 1277.93 C 216.233 1239.25 218.202 1209.79 213.017 1170.89 C 180.98 1172.73 148.969 1174.98 116.991 1177.66 C 77.9449 1180.17 38.9427 1183.33 1.13687e-13 1187.12 L 0 1141.06 L 0 889.45 z" fill="rgb(174,104,108)" transform="translate(0,0)"></path>
<path d="M 0 889.45 C 47.9985 842.828 104.145 801.677 162.053 768.244 C 179.664 758.077 206.339 753.807 220.098 745.284 C 222.755 748.45 222.59 753.537 222.991 757.882 C 223.928 767.51 222.372 774.943 228.559 781.937 C 232.758 785.079 231.981 801.074 231.194 806.033 C 221.007 805.348 224.374 808.124 218.367 814.63 C 206.359 827.635 199.206 839.482 192.709 855.873 C 179.707 899.334 182.904 956.717 195.413 1000.39 C 206.338 1060.41 205.846 1111.06 213.017 1170.89 C 180.98 1172.73 148.969 1174.98 116.991 1177.66 C 77.9449 1180.17 38.9427 1183.33 1.13687e-13 1187.12 L 0 1141.06 L 0 889.45 z" fill="rgb(241,247,252)" transform="translate(0,0)"></path>
<path d="M 0 1141.06 C 53.6525 1091.6 129.126 1031.81 195.413 1000.39 C 206.338 1060.41 205.846 1111.06 213.017 1170.89 C 180.98 1172.73 148.969 1174.98 116.991 1177.66 C 77.9449 1180.17 38.9427 1183.33 1.13687e-13 1187.12 L 0 1141.06 z" fill="rgb(210,235,250)" transform="translate(0,0)"></path>
<path d="M 228.559 781.937 C 232.758 785.079 231.981 801.074 231.194 806.033 C 221.007 805.348 224.374 808.124 218.367 814.63 C 206.359 827.635 199.206 839.482 192.709 855.873 L 191.13 855.311 C 187.417 855.991 173.986 862.289 169.475 864.128 C 133.252 878.901 100.756 900.491 69.7347 924.07 C 57.0046 933.746 45.3768 944.614 32.2294 954.356 C 66.5389 900.016 119.993 846.18 174.546 811.914 C 187.243 803.939 219.299 790.058 228.559 781.937 z" fill="rgb(210,235,250)" transform="translate(0,0)"></path>
<path d="M 321.963 1003.14 C 338.299 1006.58 358.243 1013.1 372.118 1022.6 C 373.24 1024.9 373.07 1024.97 375.07 1026.47 C 398.447 1041.66 422.908 1055.11 448.256 1066.71 C 455.233 1069.9 491.349 1085.16 496.164 1088.21 C 498.812 1102.44 510.361 1135.64 515.624 1149.47 C 458.297 1154.4 400.51 1157.55 343.131 1162.07 C 337.279 1162.53 330.85 1163.06 325.003 1163.11 C 321.504 1122.43 320.095 1080.97 319.782 1040.18 C 319.72 1032.13 318.667 1009.39 320.549 1003.22 L 321.963 1003.14 z" fill="rgb(210,235,250)" transform="translate(0,0)"></path>
<path d="M 332.926 854.083 C 332.815 865.445 332.915 873.067 335.149 884.193 C 347.336 897.958 376.787 905.474 394.707 907.542 C 389.839 909.628 384.986 911.748 380.148 913.902 C 364.129 921.073 349.995 929.294 343.304 946.801 C 341.348 951.919 339.076 967.156 342.335 971.19 C 352.333 983.565 379.429 989.326 392.658 993.439 C 387.078 1002.49 379.552 1015.48 372.118 1022.6 C 358.243 1013.1 338.299 1006.58 321.963 1003.14 L 320.549 1003.22 C 318.667 1009.39 319.72 1032.13 319.782 1040.18 C 320.095 1080.97 321.504 1122.43 325.003 1163.11 C 326.427 1183.74 327.14 1204.41 327.142 1225.08 C 327.019 1250.72 323.661 1270.11 329.243 1295.28 C 323.276 1293.18 314.938 1276.82 312.606 1271.05 C 312.583 1261.12 284.485 1218.85 277.804 1207.01 C 320.799 1191.74 305.759 1006.32 302.578 967.705 C 298.896 923.024 317.095 894.723 332.926 854.083 z" fill="rgb(138,67,82)" transform="translate(0,0)"></path>
<path d="M 320.549 1003.22 C 316.732 1002.51 316.134 1003.14 314.188 1000.85 C 311.481 978.011 323.155 909.243 332.061 887.744 C 332.108 898.549 331.657 906.458 334.168 917.122 C 338.902 915.015 344.051 912.295 349.068 911.6 L 350.627 912.464 C 346.062 917.465 336.301 927.89 333.295 933.823 C 324.04 952.098 322.293 982.976 321.963 1003.14 L 320.549 1003.22 z" fill="rgb(101,45,64)" transform="translate(0,0)"></path>
<path d="M 290.381 1471.96 C 302.848 1479.84 340.292 1558.63 359.568 1569.8 C 371.738 1576.86 374.962 1578.84 388.956 1579.81 C 362.374 1628.61 413.033 1641.04 449.977 1639.09 C 468.404 1638.12 480.633 1644.9 494.164 1656.91 C 494.61 1658.96 494.762 1658.1 494.19 1659.53 L 492.85 1659.29 C 465.519 1654.33 439.36 1660.61 412.006 1653.05 C 385.214 1645.65 374.834 1623.03 361.454 1600.85 C 344.376 1572.55 330.867 1542.51 313.96 1514.05 C 307.184 1500.75 297.7 1485.76 290.381 1471.96 z" fill="rgb(138,67,82)" transform="translate(0,0)"></path>
<path d="M 536.104 1648.65 C 522.218 1635.81 503.263 1621.75 485.737 1614.43 L 485.715 1613.29 C 492.894 1614.09 583.41 1657.51 589.95 1663.37 L 589.674 1664.26 C 587.017 1663.68 588.215 1663.43 585.949 1664.46 C 586.409 1666.66 586.432 1665.75 586.101 1667.29 C 578.897 1667.22 561.196 1668.82 556.209 1664.63 L 554.721 1661.94 L 553.076 1661.62 C 546.683 1653.81 544.872 1652.85 536.104 1648.65 z" fill="url(#Gradient6)" transform="translate(0,0)"></path>
<path d="M 536.104 1648.65 C 544.872 1652.85 546.683 1653.81 553.076 1661.62 C 550.698 1664.8 550.026 1665.93 547.017 1668.41 C 541.157 1662.65 533.883 1659.56 531.112 1654.9 C 532.009 1651.24 532.626 1651.75 536.104 1648.65 z" fill="rgb(196,131,173)" transform="translate(0,0)"></path>
<path d="M 312.606 1271.05 C 304.699 1256.8 296.84 1242.72 288.338 1228.81 C 281.15 1217.06 272.306 1205.89 266.367 1193.56 C 270.39 1197.95 274.02 1202.41 277.804 1207.01 C 284.485 1218.85 312.583 1261.12 312.606 1271.05 z" fill="rgb(101,45,64)" transform="translate(0,0)"></path>
<path d="M 666.402 1646.5 C 669.6 1648.58 671.422 1649.67 674.217 1652.22 C 673.954 1652.91 673.571 1655.58 673.429 1656.42 C 667.889 1661.42 658.644 1657.88 660.22 1649.77 C 662.474 1647.12 663.02 1647.35 666.402 1646.5 z" fill="rgb(196,131,173)" transform="translate(0,0)"></path>
<path d="M 664.801 1644.17 L 662.532 1644.35 C 658.47 1641.71 656.902 1641.06 654.054 1637.3 L 654.989 1636.93 C 658.4 1639 661.847 1641.01 665.328 1642.96 L 664.801 1644.17 z" fill="rgb(138,67,82)" transform="translate(0,0)"></path>
<path d="M 554.166 1578.84 C 563.8 1579.73 640.377 1626.52 652.753 1635.33 C 646.736 1634.43 565.229 1585.37 554.166 1578.84 z" fill="rgb(138,67,82)" transform="translate(0,0)"></path>
<path d="M 614.677 1650.27 C 619.135 1648.63 621.763 1650.1 626.212 1651.13 C 629.717 1654.19 636.132 1655.61 636.475 1660.57 C 631.862 1665.3 620.124 1662.49 616.2 1657.85 C 613.812 1655.02 614.566 1653.59 614.677 1650.27 z" fill="rgb(196,131,173)" transform="translate(0,0)"></path>
<path d="M 614.677 1650.27 C 615.522 1648.61 615.074 1649.36 615.985 1648 C 607.955 1639.61 585.848 1630.96 576.886 1623.27 L 577.006 1622.28 C 581.716 1623.67 623.852 1648.37 626.212 1651.13 C 621.763 1650.1 619.135 1648.63 614.677 1650.27 z" fill="rgb(138,67,82)" transform="translate(0,0)"></path>
<path d="M 532.163 1600.85 C 538.696 1601.37 550.107 1607.76 555.83 1611.14 C 548.826 1610.68 538.299 1604.45 532.163 1600.85 z" fill="rgb(138,67,82)" transform="translate(0,0)"></path>
<path d="M 0 1465.37 C 43.2627 1475.89 87.615 1482.84 130.568 1495.02 C 132.551 1495.59 134.851 1495.47 136.832 1495.03 C 161.558 1519.27 183.918 1548.94 207.631 1574.55 C 237.435 1607.17 271.856 1636.71 309.003 1660.75 C 402.492 1721.24 514.631 1707.61 617.674 1738.81 C 675.45 1756.31 727.353 1801.87 783.577 1818.44 C 700.011 1843.51 700.847 1824.09 629.662 1792.83 C 609.693 1783.84 588.327 1778.34 566.495 1776.58 C 480.408 1769.76 399.7 1837.18 311.554 1787.99 C 303.397 1783.44 292.409 1777.05 285.284 1771.19 C 284.24 1769.2 284.961 1770.14 283.476 1768.72 C 199.844 1689.17 154.09 1550.82 36.525 1512.43 C 25.6508 1508.88 11.343 1507.83 0 1506.96 L 0 1465.37 z" fill="rgb(210,235,250)" transform="translate(0,0)"></path>
<path d="M 1.13687e-13 1187.12 C 38.9427 1183.33 77.9449 1180.17 116.991 1177.66 C 148.969 1174.98 180.98 1172.73 213.017 1170.89 C 218.202 1209.79 216.233 1239.25 216.959 1277.93 C 200.652 1275.53 158.579 1274.78 140.335 1273.82 C 93.9603 1271.36 46.3849 1269.08 0 1269.21 L 0 1187.12 z" fill="rgb(129,187,255)" transform="translate(0,0)"></path>
<path d="M 0 1269.21 C 46.3849 1269.08 93.9603 1271.36 140.335 1273.82 C 158.579 1274.78 200.652 1275.53 216.959 1277.93 C 218.046 1291.53 219.713 1303.57 221.633 1317.09 C 232.455 1368.64 250.368 1404.42 276.781 1449.56 C 278.431 1452.38 288.694 1470.34 290.381 1471.96 C 297.7 1485.76 307.184 1500.75 313.96 1514.05 L 312.611 1516.86 C 307.25 1514.77 275.867 1464.96 269.347 1455.98 C 199.311 1359.51 115.143 1312.56 0 1287.98 L 0 1271.3 L 0 1269.21 z" fill="rgb(129,187,255)" transform="translate(0,0)"></path>
<path d="M 0 1269.21 C 46.3849 1269.08 93.9603 1271.36 140.335 1273.82 C 158.579 1274.78 200.652 1275.53 216.959 1277.93 C 218.046 1291.53 219.713 1303.57 221.633 1317.09 C 202.104 1313.6 180.68 1307.43 160.51 1303.82 C 106.901 1294.22 53.1197 1283.37 0 1271.3 L 0 1269.21 z" fill="rgb(210,235,250)" transform="translate(0,0)"></path>
<path d="M 0 1402.65 C 49.0557 1422.69 99.5411 1450.23 133.947 1491.75 C 128.438 1493.58 115.491 1483.25 108.681 1480.5 C 73.546 1466.32 36.0429 1455.98 0 1444.41 L 0 1402.65 z" fill="rgb(210,235,250)" transform="translate(0,0)"></path>
<path d="M 2048 1779.03 L 2048 1804.85 C 2017.67 1807.74 1987.85 1811.22 1957.33 1810.41 C 1913.35 1809.24 1869.42 1807.34 1826.15 1798.71 C 1820.49 1797.58 1815.75 1797.38 1810.04 1795.63 L 1809.18 1793.91 C 1830.44 1797.68 1854.56 1796.58 1875.74 1797.26 C 1941.68 1799.35 1984.42 1795.46 2048 1779.03 z" fill="rgb(129,187,255)" transform="translate(0,0)"></path>
<path d="M 553.076 1661.62 L 554.721 1661.94 L 556.209 1664.63 C 552.669 1670.48 550.825 1672.41 544.23 1674.56 L 543.904 1673.89 C 544.239 1671.09 545.133 1670.59 547.017 1668.41 C 550.026 1665.93 550.698 1664.8 553.076 1661.62 z" fill="rgb(138,67,82)" transform="translate(0,0)"></path>
<path d="M 1684.04 1772.32 C 1716.48 1767.27 1750.29 1761.3 1782.81 1758.14 C 1835.44 1753.02 1890.33 1754.18 1943.21 1755.37 C 1957.83 1755.7 1994.19 1756.37 2007.09 1758.68 C 1943.75 1773.92 1878.89 1787.89 1813.48 1790.13 C 1773.16 1790.25 1724.53 1782.94 1684.99 1773.83 L 1684.04 1772.32 z" fill="rgb(129,187,255)" transform="translate(0,0)"></path>
<path d="M 1531.32 0 L 1598.56 0 L 1623.93 0 L 1716.03 0 L 2048 0 L 2048 114.289 L 2048 285.064 L 2048 328.92 L 2048 394.75 L 2048 582.111 L 2048 661.463 L 2048 665.638 L 2048 686.071 L 2048 1019.84 L 2048 1284.68 C 2023.48 1285.72 1999.14 1287.32 1974.58 1288.28 C 1937.38 1289.73 1897.52 1290.4 1860.5 1294.63 C 1862.49 1299.59 1868.09 1312.17 1868 1316.59 C 1852.66 1329.2 1845.05 1335.09 1826.64 1342.83 C 1807.26 1348.79 1785.67 1353.25 1766.62 1343.42 C 1765.78 1342.99 1764.95 1342.54 1764.13 1342.09 C 1764.52 1331.96 1757.12 1315.51 1752.64 1306.3 C 1750.25 1300.8 1747.52 1294.94 1744.86 1289.57 C 1718.59 1236.47 1694.89 1183.43 1664.85 1132.29 C 1660.64 1131.65 1655.56 1131.45 1652.47 1128.82 C 1634 1118.35 1623.67 1108.05 1608.75 1093.19 C 1607.9 1091.4 1593.93 1071.27 1591.63 1067.88 L 1591.03 1066.64 C 1586.2 1056.43 1582.14 1045.87 1578.9 1035.06 C 1576.35 1026.54 1560.01 953.398 1561.78 948.376 L 1561.41 946.093 C 1559.86 945.324 1557.1 944.902 1555.29 944.514 C 1574.44 919.681 1585.58 880.849 1591.12 850.307 L 1591.53 849.167 C 1594.58 822.572 1596.66 788.561 1588.32 763.022 C 1583.64 748.661 1564.55 734.163 1548.75 738.111 C 1506.52 748.663 1465.63 771.615 1426.26 790.531 C 1411.43 799.509 1395.57 808.276 1380.51 816.989 C 1371.36 822.284 1358.96 830.251 1350.03 834.735 C 1343.88 833.335 1317.62 834.042 1309.95 834.464 C 1196.35 840.712 1086.75 871.096 975.845 892.955 C 934.321 901.139 877.621 906.896 835.086 910.731 C 822.781 902.627 804.737 882.229 796.464 870.116 C 751.23 803.883 735.885 800.71 666.086 775.702 C 642.827 769.704 609.559 756.386 584.252 748.58 C 584.971 748.56 585.691 748.534 586.41 748.501 C 637.447 746.146 708.598 725 756.624 708.196 C 882.383 664.191 986.442 569.823 1074.28 472.473 C 1084.46 461.197 1094.03 449.135 1104.26 437.807 C 1134.78 400.187 1160.28 362.079 1187.32 322.482 C 1248.92 232.273 1321.34 150.364 1407.49 82.8596 C 1446.68 52.156 1486.91 22.9608 1531.32 0 z" fill="url(#Gradient5)" transform="translate(0,0)"></path>
<path d="M 1531.32 0 L 1598.56 0 L 1623.93 0 L 1716.03 0 L 2048 0 L 2048 114.289 C 1996.12 151.008 1961.27 181.135 1919.27 229.936 C 1871.48 285.459 1822.44 359.863 1759.5 398.304 C 1684.06 444.375 1599.89 448.517 1514.63 456.214 C 1449.54 462.091 1375.39 474.982 1313.87 498.756 C 1245.01 525.371 1173.48 563.341 1119.14 614.159 C 1104.35 627.996 1061.11 674.792 1047.02 683.28 L 1045.01 681.917 C 1010.72 692.053 976.343 702.881 941.495 711.047 C 922.97 715.389 904.312 719.333 885.759 723.593 L 790.211 746.19 C 756.076 754.156 722.626 764.248 688.062 770.478 C 684.012 771.208 668.743 773.922 666.086 775.702 C 642.827 769.704 609.559 756.386 584.252 748.58 C 584.971 748.56 585.691 748.534 586.41 748.501 C 637.447 746.146 708.598 725 756.624 708.196 C 882.383 664.191 986.442 569.823 1074.28 472.473 C 1084.46 461.197 1094.03 449.135 1104.26 437.807 C 1134.78 400.187 1160.28 362.079 1187.32 322.482 C 1248.92 232.273 1321.34 150.364 1407.49 82.8596 C 1446.68 52.156 1486.91 22.9608 1531.32 0 z" fill="rgb(255,239,249)" transform="translate(0,0)"></path>
<path d="M 1531.32 0 L 1598.56 0 L 1623.93 0 L 1716.03 0 C 1638.99 47.2835 1563.81 94.7508 1494.83 153.623 C 1455.77 187.106 1422.66 226.782 1390.36 266.606 C 1376.49 283.697 1359.9 296.743 1344.75 311.673 C 1297.27 358.445 1238.81 388.589 1177.58 413.446 C 1167.11 417.697 1114.35 438.11 1104.26 437.807 C 1134.78 400.187 1160.28 362.079 1187.32 322.482 C 1248.92 232.273 1321.34 150.364 1407.49 82.8596 C 1446.68 52.156 1486.91 22.9608 1531.32 0 z" fill="rgb(210,235,250)" transform="translate(0,0)"></path>
<path d="M 1598.56 0 L 1623.93 0 C 1605.06 13.9284 1589.85 27.2789 1569.7 39.9673 C 1534.32 62.2352 1496.75 72.4891 1457.03 84.1021 C 1447.4 86.9186 1440.67 90.1665 1430.42 92.6154 L 1429.92 91.8755 C 1435.08 87.0273 1486.93 67.9108 1497.25 63.6303 C 1510 58.3004 1522.51 52.4158 1534.74 45.9933 C 1559.04 32.9699 1577.24 17.0767 1598.56 0 z" fill="rgb(241,247,252)" transform="translate(0,0)"></path>
<path d="M 2048 661.463 L 2048 665.638 L 2048 686.071 L 2048 1019.84 L 2048 1284.68 C 2023.48 1285.72 1999.14 1287.32 1974.58 1288.28 C 1937.38 1289.73 1897.52 1290.4 1860.5 1294.63 C 1846.5 1265.78 1836.86 1232.15 1827.58 1201.57 C 1811.64 1149.93 1797.26 1097.83 1784.44 1045.34 C 1782.56 1034.41 1776.73 1016.94 1773.5 1005.95 C 1765.01 977.064 1755.37 947.19 1744.03 919.31 C 1761.72 908.29 1779.35 899.937 1798.28 887.545 C 1867.07 842.513 1909.15 790.272 1957.13 725.682 C 1969.49 718.43 1982.73 709.763 1994.22 701.25 C 2011.79 688.241 2029.03 672.141 2048 661.463 z" fill="rgb(210,235,250)" transform="translate(0,0)"></path>
<path d="M 2048 1019.84 L 2048 1284.68 C 2023.48 1285.72 1999.14 1287.32 1974.58 1288.28 C 1937.38 1289.73 1897.52 1290.4 1860.5 1294.63 C 1846.5 1265.78 1836.86 1232.15 1827.58 1201.57 C 1811.64 1149.93 1797.26 1097.83 1784.44 1045.34 C 1850.68 1038.1 1917.73 1033.13 1984.04 1025.93 C 2005.21 1023.63 2027 1022.4 2048 1019.84 z" fill="rgb(129,187,255)" transform="translate(0,0)"></path>
<path d="M 2048 665.638 L 2048 686.071 C 2012.15 712.26 1992.57 736.281 1967.23 772.08 C 1957.8 785.395 1949.1 799.487 1939.15 812.429 C 1919.88 837.994 1897.26 860.859 1871.91 880.412 C 1868.75 882.865 1854.27 894.73 1852.09 895.159 L 1852.31 895.744 L 1851.58 895.662 C 1857.75 887.168 1868.47 878.071 1876.12 870.534 C 1888.35 858.67 1899.88 846.105 1910.65 832.903 C 1943.9 791.664 1965.39 748.526 1999.28 709.103 C 2013.86 692.142 2031.48 680.088 2048 665.638 z" fill="rgb(241,247,252)" transform="translate(0,0)"></path>
<path d="M 1426.26 790.531 C 1430.45 782.946 1523.3 743.161 1537.72 738.94 C 1548.33 735.837 1558.71 734.107 1568.97 739.487 C 1583.5 747.101 1593.38 763.887 1597.69 779.277 C 1601.21 791.839 1602.7 805.194 1602.89 818.212 C 1603.01 825.827 1598.58 839.909 1602.12 846.294 C 1609 849.94 1623.7 850.71 1627.31 858.532 C 1654.06 916.499 1664.35 981.842 1692.26 1039.45 C 1693.58 1042.19 1701 1055.27 1701.02 1057.21 C 1707.76 1069.11 1717.65 1078.06 1725.1 1088.95 C 1749.03 1122.97 1763.04 1184.1 1777.64 1224.47 C 1791.07 1261.62 1805.72 1303.02 1824.28 1337.94 L 1826.64 1342.83 C 1807.26 1348.79 1785.67 1353.25 1766.62 1343.42 C 1765.78 1342.99 1764.95 1342.54 1764.13 1342.09 C 1764.52 1331.96 1757.12 1315.51 1752.64 1306.3 C 1750.25 1300.8 1747.52 1294.94 1744.86 1289.57 C 1718.59 1236.47 1694.89 1183.43 1664.85 1132.29 C 1660.64 1131.65 1655.56 1131.45 1652.47 1128.82 C 1634 1118.35 1623.67 1108.05 1608.75 1093.19 C 1607.9 1091.4 1593.93 1071.27 1591.63 1067.88 L 1591.03 1066.64 C 1586.2 1056.43 1582.14 1045.87 1578.9 1035.06 C 1576.35 1026.54 1560.01 953.398 1561.78 948.376 L 1561.41 946.093 C 1559.86 945.324 1557.1 944.902 1555.29 944.514 C 1574.44 919.681 1585.58 880.849 1591.12 850.307 L 1591.53 849.167 C 1594.58 822.572 1596.66 788.561 1588.32 763.022 C 1583.64 748.661 1564.55 734.163 1548.75 738.111 C 1506.52 748.663 1465.63 771.615 1426.26 790.531 z" fill="rgb(255,239,249)" transform="translate(0,0)"></path>
<path d="M 1824.28 1337.94 L 1823.02 1338.27 C 1818.54 1333.77 1810.31 1314.03 1807.44 1307.29 C 1790.58 1267.53 1775.5 1227.04 1762.24 1185.94 C 1755.48 1165.57 1749.8 1145.09 1742.49 1124.79 C 1739.03 1115.21 1725.8 1096.25 1725.1 1088.95 C 1749.03 1122.97 1763.04 1184.1 1777.64 1224.47 C 1791.07 1261.62 1805.72 1303.02 1824.28 1337.94 z" fill="rgb(196,131,173)" transform="translate(0,0)"></path>
<path d="M 1561.41 946.093 C 1574.09 937.395 1592.51 914.104 1599.34 900.57 C 1601.65 910.705 1569.78 941.406 1561.78 948.376 L 1561.41 946.093 z" fill="rgb(196,131,173)" transform="translate(0,0)"></path>
<path d="M 1652.47 1128.82 C 1660.32 1129.91 1663.71 1130.48 1671.83 1128.94 C 1676.18 1128.11 1684.13 1123.63 1686.69 1123.78 C 1678.26 1129.44 1674.58 1130.29 1664.85 1132.29 C 1660.64 1131.65 1655.56 1131.45 1652.47 1128.82 z" fill="rgb(137,92,161)" transform="translate(0,0)"></path>
<path d="M 1622.58 885.429 C 1638.25 889.783 1648.02 929.912 1653.03 944.383 C 1663.96 975.983 1673.98 1008.52 1687.3 1039.2 C 1694.89 1056.67 1709.51 1073.51 1721.59 1087.99 C 1709.96 1087.96 1701.13 1089.02 1689.6 1090.27 C 1667.8 1090.08 1650.81 1081.22 1632.97 1069 C 1610.11 1053.33 1596.96 1024.6 1592.58 997.763 C 1588.43 972.331 1592.1 935.319 1603.91 911.93 C 1606.5 906.799 1618.64 890.798 1622.58 885.429 z" fill="rgb(241,247,252)" transform="translate(0,0)"></path>
<path d="M 1598.02 849.812 C 1597.33 845.917 1598.25 831.452 1598.51 826.274 C 1599.34 809.333 1599.25 799.177 1596.01 782.57 C 1602.74 794.061 1600.1 818.54 1599.99 831.706 C 1599.95 837.027 1597.91 842.585 1599.47 847.855 C 1599.34 868.869 1589.14 896.478 1581.27 916.149 C 1579.03 921.745 1564.8 942.635 1558.93 943.897 C 1559.75 941.312 1560.02 941.025 1562.13 939.063 C 1582.84 919.793 1593.08 879.776 1597.36 852.72 C 1597.71 850.487 1597.29 851.981 1598.02 849.812 z" fill="rgb(196,131,173)" transform="translate(0,0)"></path>
<path d="M 1977.55 378.123 C 1989.81 373.47 2032.01 338.557 2048 328.92 L 2048 394.75 C 2010.76 422.883 1977.35 459.731 1945.61 493.932 C 1937.08 503.124 1925.93 514.93 1918.21 524.498 C 1921.76 511.982 1926.82 499.294 1930.89 486.806 C 1939.29 461.012 1948.17 434.494 1959.48 409.813 C 1963.4 401.264 1972.43 386.688 1977.55 378.123 z" fill="rgb(210,235,250)" transform="translate(0,0)"></path>
<path d="M 2048 582.111 L 2048 661.463 C 2029.03 672.141 2011.79 688.241 1994.22 701.25 C 1982.73 709.763 1969.49 718.43 1957.13 725.682 C 1959.14 721.975 1965.24 713.718 1967.98 709.67 C 1975.88 697.998 1983.63 686.228 1991.24 674.363 C 2010.45 644.128 2028.69 611.624 2048 582.111 z" fill="rgb(255,239,249)" transform="translate(0,0)"></path>
<path d="M 1977.55 378.123 C 1997.23 341.049 2019.53 315.158 2048 285.064 L 2048 328.92 C 2032.01 338.557 1989.81 373.47 1977.55 378.123 z" fill="rgb(255,239,249)" transform="translate(0,0)"></path>
<path d="M 1702.94 842.154 C 1707.96 842.095 1709.01 841.875 1713.7 843.252 C 1718.6 847.201 1726.73 878.732 1728.96 886.846 L 1722.05 881.948 C 1702.32 873.981 1673.73 864.146 1702.94 842.154 z" fill="rgb(255,239,249)" transform="translate(0,0)"></path>
<path d="M 1320.53 0 L 1531.32 0 C 1486.91 22.9608 1446.68 52.156 1407.49 82.8596 C 1321.34 150.364 1248.92 232.273 1187.32 322.482 C 1160.28 362.079 1134.78 400.187 1104.26 437.807 C 1094.03 449.135 1084.46 461.197 1074.28 472.473 C 986.442 569.823 882.383 664.191 756.624 708.196 C 708.598 725 637.447 746.146 586.41 748.501 C 585.691 748.534 584.971 748.56 584.252 748.58 C 609.559 756.386 642.827 769.704 666.086 775.702 C 735.885 800.71 751.23 803.883 796.464 870.116 C 804.737 882.229 822.781 902.627 835.086 910.731 C 877.621 906.896 934.321 901.139 975.845 892.955 C 1086.75 871.096 1196.35 840.712 1309.95 834.464 C 1317.62 834.042 1343.88 833.335 1350.03 834.735 C 1309.13 859.949 1271.86 880.444 1233.07 910.43 C 1217.59 922.47 1202.51 935.022 1187.87 948.065 C 1179.15 955.892 1151.62 983.489 1144.07 987.255 C 1107.93 999.508 1073.16 1018.33 1036.56 1029.97 C 1025.3 1033.56 1014.12 1038.45 1002.52 1041.07 C 996.819 1037.84 979.133 1023.9 973.582 1019.58 C 952.63 1003.24 929.529 987.849 904.775 977.727 C 900.412 979.474 884.93 979.864 878.77 980.698 C 865.679 982.472 851.041 984.58 838.393 988.7 C 825.227 991.271 812.3 996.858 799.966 1002.08 C 749.751 1023.35 695.642 1065.01 667.81 1112.31 C 658.601 1128.77 656.937 1133.56 655.194 1152.06 C 655.693 1155.27 656.157 1159.1 656.948 1162.19 C 641.63 1154.29 625.114 1147.35 609.267 1139.2 C 607.286 1137.4 604.139 1136.25 601.593 1135.64 C 595.802 1135.36 507.826 1093.48 496.164 1088.21 C 491.349 1085.16 455.233 1069.9 448.256 1066.71 C 422.908 1055.11 398.447 1041.66 375.07 1026.47 C 373.07 1024.97 373.24 1024.9 372.118 1022.6 C 379.552 1015.48 387.078 1002.49 392.658 993.439 C 418.174 957.044 411.108 854.891 382.243 819.419 C 359.232 791.141 316.914 801.757 285.635 797.341 C 306.792 792.038 328.689 788.813 350.23 785.275 C 361.727 784.184 385.35 779.138 398.393 777.053 C 404.84 776.567 412.485 775.534 418.872 774.495 C 461.336 767.589 504.437 772.25 547.036 768.306 C 552.743 767.777 559.236 765.955 562.776 761.189 C 565.04 745.617 504.365 742.335 490.909 739.761 C 483.116 728.057 461.318 696.148 462.65 682.277 C 468.359 668.852 473.733 656.053 480.807 643.257 C 526.833 637.846 575.935 626.443 622.231 619.303 C 731.755 602.411 839.008 590.537 911.1 495.453 C 954.518 445.912 999.661 373.489 1035.48 317.096 C 1117.33 188.234 1195.72 89.6152 1320.53 0 z" fill="rgb(241,247,252)" transform="translate(0,0)"></path>
<path d="M 612.78 1019.18 C 636.424 982.961 684.667 944.435 725.637 929.274 C 733.081 932.691 759.973 930.896 773.477 935.49 C 783.352 942.165 791.462 947.456 800.483 955.235 C 808.824 962.426 825.273 981.309 833.784 986.394 C 836.36 988.11 835.58 987.966 838.393 988.7 C 825.227 991.271 812.3 996.858 799.966 1002.08 C 749.751 1023.35 695.642 1065.01 667.81 1112.31 C 658.601 1128.77 656.937 1133.56 655.194 1152.06 C 655.693 1155.27 656.157 1159.1 656.948 1162.19 C 641.63 1154.29 625.114 1147.35 609.267 1139.2 C 607.286 1137.4 604.139 1136.25 601.593 1135.64 C 598.875 1134.2 595.592 1131.54 593.042 1129.61 C 583.635 1107.88 587.559 1085.91 593.346 1063.74 C 594.292 1059.4 596.022 1054.67 597.435 1050.41 C 600.125 1039.89 606.977 1028.24 612.78 1019.18 z" fill="rgb(174,104,108)" transform="translate(0,0)"></path>
<path d="M 612.78 1019.18 C 615.022 1023.72 614.079 1037.84 614.004 1043.63 C 626.183 1064.79 650.878 1093.08 667.81 1112.31 C 658.601 1128.77 656.937 1133.56 655.194 1152.06 C 655.693 1155.27 656.157 1159.1 656.948 1162.19 C 641.63 1154.29 625.114 1147.35 609.267 1139.2 C 607.286 1137.4 604.139 1136.25 601.593 1135.64 C 598.875 1134.2 595.592 1131.54 593.042 1129.61 C 583.635 1107.88 587.559 1085.91 593.346 1063.74 C 594.292 1059.4 596.022 1054.67 597.435 1050.41 C 600.125 1039.89 606.977 1028.24 612.78 1019.18 z" fill="rgb(138,67,82)" transform="translate(0,0)"></path>
<path d="M 597.435 1050.41 C 599.093 1054.2 598.281 1051.33 597.935 1054.36 C 594.32 1086.02 592.818 1123.75 628.853 1137.42 C 637.132 1140.56 647.321 1148.41 655.194 1152.06 C 655.693 1155.27 656.157 1159.1 656.948 1162.19 C 641.63 1154.29 625.114 1147.35 609.267 1139.2 C 607.286 1137.4 604.139 1136.25 601.593 1135.64 C 598.875 1134.2 595.592 1131.54 593.042 1129.61 C 583.635 1107.88 587.559 1085.91 593.346 1063.74 C 594.292 1059.4 596.022 1054.67 597.435 1050.41 z" fill="rgb(101,45,64)" transform="translate(0,0)"></path>
<path d="M 476.172 930.787 C 531.075 941.378 561.565 925.894 607.238 898.596 C 611.001 896.348 618.819 892.934 623.058 893.182 L 623.922 894.477 C 621.755 903.798 575.507 954.656 566.978 962.656 C 559.289 969.859 550.914 976.293 541.972 981.864 C 523.895 993.198 510.594 997.007 491.384 1003.59 C 502.145 1010.02 517.348 1017.72 527.171 1024.7 C 549.635 1040.65 568.163 1052.25 593.346 1063.74 C 587.559 1085.91 583.635 1107.88 593.042 1129.61 C 595.592 1131.54 598.875 1134.2 601.593 1135.64 C 595.802 1135.36 507.826 1093.48 496.164 1088.21 C 491.349 1085.16 455.233 1069.9 448.256 1066.71 C 422.908 1055.11 398.447 1041.66 375.07 1026.47 C 423.861 1016.93 460.317 976.327 476.172 930.787 z" fill="rgb(255,239,249)" transform="translate(0,0)"></path>
<path d="M 725.637 929.274 C 749.916 917.904 799.446 903.191 826.788 911.518 C 843.866 916.72 859.223 940.605 872.076 952.809 C 881.112 961.39 893.8 971.617 904.775 977.727 C 900.412 979.474 884.93 979.864 878.77 980.698 C 865.679 982.472 851.041 984.58 838.393 988.7 C 835.58 987.966 836.36 988.11 833.784 986.394 C 825.273 981.309 808.824 962.426 800.483 955.235 C 791.462 947.456 783.352 942.165 773.477 935.49 C 759.973 930.896 733.081 932.691 725.637 929.274 z" fill="rgb(160,89,102)" transform="translate(0,0)"></path>
<path d="M 773.477 935.49 C 784.249 936.099 827.976 976.432 833.784 986.394 C 825.273 981.309 808.824 962.426 800.483 955.235 C 791.462 947.456 783.352 942.165 773.477 935.49 z" fill="rgb(101,45,64)" transform="translate(0,0)"></path>
<path d="M 0 609.923 C 37.1335 581.511 73.1534 552.372 111.069 526.5 C 191.62 471.534 276.726 438.681 375.5 445.001 C 405.227 446.902 426.773 447.433 457.283 454.066 C 507.253 464.931 557.352 479.623 607.339 489.995 C 574.545 511.908 532.038 526.369 496.377 543.006 C 487.859 546.979 466.61 553.154 461.844 559.88 C 473.398 570.079 482.012 576.878 488.435 591.303 C 497.836 612.386 490.841 624.253 480.807 643.257 C 473.733 656.053 468.359 668.852 462.65 682.277 C 461.318 696.148 483.116 728.057 490.909 739.761 C 504.365 742.335 565.04 745.617 562.776 761.189 C 559.236 765.955 552.743 767.777 547.036 768.306 C 504.437 772.25 461.336 767.589 418.872 774.495 C 412.485 775.534 404.84 776.567 398.393 777.053 C 385.35 779.138 361.727 784.184 350.23 785.275 C 328.689 788.813 306.792 792.038 285.635 797.341 C 277.954 798.453 264.222 798.766 257.962 800.84 C 254.278 802.385 247.14 802.858 242.849 803.369 C 238.421 804.957 235.922 806.092 231.194 806.033 C 231.981 801.074 232.758 785.079 228.559 781.937 C 222.372 774.943 223.928 767.51 222.991 757.882 C 222.59 753.537 222.755 748.45 220.098 745.284 C 206.339 753.807 179.664 758.077 162.053 768.244 C 104.145 801.677 47.9985 842.828 0 889.45 L 0 609.923 z" fill="rgb(255,239,249)" transform="translate(0,0)"></path>
<path d="M 347.596 654.168 C 379.455 629.634 403.611 597.881 446.069 583.734 C 464.59 577.563 472.297 583.235 488.435 591.303 C 497.836 612.386 490.841 624.253 480.807 643.257 C 473.733 656.053 468.359 668.852 462.65 682.277 C 461.318 696.148 483.116 728.057 490.909 739.761 C 504.365 742.335 565.04 745.617 562.776 761.189 C 559.236 765.955 552.743 767.777 547.036 768.306 C 504.437 772.25 461.336 767.589 418.872 774.495 C 412.485 775.534 404.84 776.567 398.393 777.053 C 385.35 779.138 361.727 784.184 350.23 785.275 C 350.38 765.718 347.413 761.228 339.315 744.655 C 322.669 710.586 283.682 698.491 266.34 665.972 C 280.817 674.581 288.674 674.675 305.172 673.125 C 315.452 670.326 316.896 669.095 324.378 661.895 C 325.142 660.402 325.05 658.288 325.185 656.459 L 324.657 654.969 L 326.274 653.716 C 333.908 654.707 339.994 655.422 347.596 654.168 z" fill="rgb(138,67,82)" transform="translate(0,0)"></path>
<path d="M 399.013 648.391 C 410.184 644.125 425.211 641.67 437.087 644.233 C 454.779 648.052 454.816 669.55 462.65 682.277 C 461.318 696.148 483.116 728.057 490.909 739.761 C 504.365 742.335 565.04 745.617 562.776 761.189 C 559.236 765.955 552.743 767.777 547.036 768.306 C 504.437 772.25 461.336 767.589 418.872 774.495 C 412.485 775.534 404.84 776.567 398.393 777.053 C 391.66 766.898 378.389 756.229 369.929 746.906 C 362.21 738.399 331.869 695.433 324.642 694.15 C 324.044 694.044 323.44 693.983 322.839 693.9 L 322.479 692.647 C 328.758 687.098 349.941 674.83 357.695 672.07 C 396.209 677.854 426.838 733.716 466.215 746.494 C 471.608 748.244 476.337 752.56 482.19 751.754 L 483.067 750.104 C 482.027 747.77 458.981 726.15 454.917 722.366 C 430.201 699.359 416.19 677.176 399.013 648.391 z" fill="rgb(174,104,108)" transform="translate(0,0)"></path>
<path d="M 324.657 654.969 L 326.274 653.716 C 333.908 654.707 339.994 655.422 347.596 654.168 C 352.485 654.424 357.117 654.117 361.24 656.449 L 362.649 658.523 C 357.698 669.654 328.91 661.468 325.185 656.459 L 324.657 654.969 z" fill="rgb(101,45,64)" transform="translate(0,0)"></path>
<path d="M 324.378 661.895 C 324.372 674.173 315.179 682.278 305.172 673.125 C 315.452 670.326 316.896 669.095 324.378 661.895 z" fill="rgb(101,45,64)" transform="translate(0,0)"></path>
<path d="M 368.107 497.627 C 371.893 499.005 372.158 499.45 375.273 502.177 C 379.001 505.638 382.37 510.222 386.394 510.796 C 390.168 508.492 392.658 507.522 396.827 505.964 C 404.538 508.325 406.644 509.443 414.684 508.712 C 416.435 514.78 417.343 516.713 420.027 522.267 L 429.077 527.44 C 442.877 533.998 446.948 537.002 452.735 551.821 C 456.1 553.467 459.149 557.111 461.844 559.88 C 473.398 570.079 482.012 576.878 488.435 591.303 C 472.297 583.235 464.59 577.563 446.069 583.734 C 403.611 597.881 379.455 629.634 347.596 654.168 C 339.994 655.422 333.908 654.707 326.274 653.716 L 324.657 654.969 L 325.185 656.459 C 325.05 658.288 325.142 660.402 324.378 661.895 C 316.896 669.095 315.452 670.326 305.172 673.125 C 288.674 674.675 280.817 674.581 266.34 665.972 C 260.352 654.484 256.339 646.65 261.219 633.784 C 262.013 632.979 262.817 632.186 263.633 631.403 C 268.882 626.417 269.497 626.788 277.148 626.957 C 277.058 625.068 276.317 621.335 275.985 619.317 C 279.941 622.08 277.604 623.256 281.265 624.838 C 285.714 619.386 290.727 599.652 293.939 591.12 C 289.655 589.844 286.333 589.274 282.874 586.51 C 280.962 582.376 281.546 583.689 281.964 578.593 C 279.77 576.215 279.408 574.152 278.402 571.077 C 278.318 565.006 277.884 563.866 275.486 558.569 L 274.849 557.185 C 282.128 543.292 279.122 534.774 293.84 519.423 C 304.805 507.987 321.842 499.377 337.698 498.874 C 345.948 497.671 353.309 498.204 361.571 499.216 C 363.182 499.315 364.728 499.341 366.341 499.382 L 368.107 497.627 z" fill="rgb(196,131,173)" transform="translate(0,0)"></path>
<path d="M 429.077 527.44 C 442.877 533.998 446.948 537.002 452.735 551.821 L 451.106 551.806 L 446.721 550.051 C 443.193 551.137 429.647 554.619 427.714 555.933 C 425.246 556.31 422.344 555.18 420.018 554.361 C 413.262 554.06 412.59 553.593 407.066 557.417 C 403.072 555.918 398.8 557.429 394.18 558.283 C 401.13 544.672 411.628 526.483 429.077 527.44 z" fill="rgb(160,89,102)" transform="translate(0,0)"></path>
<path d="M 437.025 542.479 C 435.479 545.564 433.921 547.574 434.532 550.834 C 438.476 549.327 438.016 543.028 438.353 539.333 C 439.529 543.336 439.013 545.974 438.141 550.056 C 442.504 550.857 442.945 549.989 446.721 550.051 C 443.193 551.137 429.647 554.619 427.714 555.933 C 425.246 556.31 422.344 555.18 420.018 554.361 C 416.664 551.756 416.024 552.253 415.421 549.101 C 417.412 546.596 418.463 545.551 419.249 542.335 C 426.697 539.331 429.262 540.625 437.025 542.479 z" fill="rgb(138,67,82)" transform="translate(0,0)"></path>
<path d="M 419.249 542.335 C 419.01 538.142 418.399 539.875 420.662 536.81 C 426.008 534.539 438.777 534.416 437.025 542.479 C 429.262 540.625 426.697 539.331 419.249 542.335 z" fill="rgb(145,40,55)" transform="translate(0,0)"></path>
<path d="M 281.964 578.593 C 286.974 583.269 292.956 586.308 295.059 588.273 C 299.599 599.691 299.708 612.182 302.984 620.538 C 300.941 627.298 301.532 626.999 293.927 627.869 C 289.272 628.006 281.282 628.414 277.148 626.957 C 277.058 625.068 276.317 621.335 275.985 619.317 C 279.941 622.08 277.604 623.256 281.265 624.838 C 285.714 619.386 290.727 599.652 293.939 591.12 C 289.655 589.844 286.333 589.274 282.874 586.51 C 280.962 582.376 281.546 583.689 281.964 578.593 z" fill="rgb(138,67,82)" transform="translate(0,0)"></path>
<path d="M 341.66 502.659 C 346.956 502.91 353.091 503.059 358.308 503.474 L 359.974 504.634 C 359.056 506.861 359.483 506.155 357.887 508.078 L 353.752 510.237 C 340.652 510.947 332.748 508.772 320.946 517.061 C 313.232 528.029 315.541 529.672 311.356 539.559 L 309.555 537.686 C 308.267 529.899 314.104 517.951 318.575 511.465 C 323.266 504.66 333.899 503.714 341.66 502.659 z" fill="rgb(3,1,4)" transform="translate(0,0)"></path>
<path d="M 338.985 514.271 C 348.036 517.127 353.198 518.431 361.086 523.923 L 363.116 525.383 L 363.014 526.469 C 353.763 523.478 342.7 518.341 333.897 522.637 C 327.363 525.827 318.115 540.745 313.698 541.755 L 311.356 539.559 C 315.541 529.672 313.232 528.029 320.946 517.061 L 327.073 520.679 C 331.524 518.012 334.169 516.365 338.985 514.271 z" fill="url(#Gradient4)" transform="translate(0,0)"></path>
<path d="M 320.946 517.061 L 327.073 520.679 C 321.27 526.23 315.923 533.954 313.698 541.755 L 311.356 539.559 C 315.541 529.672 313.232 528.029 320.946 517.061 z" fill="rgb(160,89,102)" transform="translate(0,0)"></path>
<path d="M 295.059 588.273 L 309.998 595.946 C 307.774 603.897 305.503 612.747 302.984 620.538 C 299.708 612.182 299.599 599.691 295.059 588.273 z" fill="rgb(160,89,102)" transform="translate(0,0)"></path>
<path d="M 368.107 497.627 C 371.893 499.005 372.158 499.45 375.273 502.177 L 375.2 506.382 C 370.884 510.151 362.965 509.968 357.887 508.078 C 359.483 506.155 359.056 506.861 359.974 504.634 L 358.308 503.474 C 360.147 502.214 360.273 501.356 361.571 499.216 C 363.182 499.315 364.728 499.341 366.341 499.382 L 368.107 497.627 z" fill="rgb(138,67,82)" transform="translate(0,0)"></path>
<path d="M 394.18 558.283 C 398.8 557.429 403.072 555.918 407.066 557.417 C 403.204 560.207 396.743 564.759 391.774 563.682 L 391.455 562.167 L 394.18 558.283 z" fill="rgb(138,67,82)" transform="translate(0,0)"></path>
<path d="M 446.721 550.051 L 451.106 551.806 C 442.841 553.608 436.192 555.151 427.714 555.933 C 429.647 554.619 443.193 551.137 446.721 550.051 z" fill="rgb(145,40,55)" transform="translate(0,0)"></path>
<path d="M 290.619 638.158 C 298.051 646.647 305.962 646.11 311.834 651.614 C 308.839 652.086 303.96 650.075 300.904 649.041 C 299.132 654.89 299.546 656.706 293.458 658.519 C 290.88 656.176 290.057 650.805 288.514 647.18 C 284.841 644.769 286.341 645.429 281.207 645.699 C 290.193 639.768 286.118 645.157 292.568 644.098 L 290.619 638.158 z" fill="rgb(145,40,55)" transform="translate(0,0)"></path>
<path d="M 290.619 638.158 C 298.051 646.647 305.962 646.11 311.834 651.614 C 308.839 652.086 303.96 650.075 300.904 649.041 C 297.75 648.21 295.435 649.076 292.742 647.232 L 292.568 644.098 L 290.619 638.158 z" fill="rgb(4,2,16)" transform="translate(0,0)"></path>
<path d="M 396.504 514.998 C 399.594 514.613 400.847 514.158 403.699 515.415 C 403.393 518.174 397.778 523.57 395.459 526.259 C 393.496 527.493 393.598 527.3 391.353 528.078 L 390.016 527.03 C 389.866 521.822 393.04 518.451 396.504 514.998 z" fill="rgb(4,2,16)" transform="translate(0,0)"></path>
<path d="M 377.971 530.152 C 380.543 530.452 387.172 533.422 388.295 536.194 L 385.043 539.769 C 380.979 539.739 378.11 539.251 375.204 536.771 C 374.881 533.177 375.266 534.02 377.971 530.152 z" fill="rgb(4,2,16)" transform="translate(0,0)"></path>
<path d="M 276.769 653.148 L 274.822 653.462 C 266.026 646.365 270.96 630.572 287.733 635.027 C 283.031 635.706 281.71 635.823 277.317 637.397 C 271.895 642.53 274.812 646.191 276.769 653.148 z" fill="rgb(145,40,55)" transform="translate(0,0)"></path>
<path d="M 412.004 516.589 L 413.32 517.515 C 410.291 522.538 409.227 523.908 408.122 529.768 C 406.981 529 406.744 528.656 405.76 527.69 C 405.673 522.429 408.406 520.321 412.004 516.589 z" fill="rgb(3,1,4)" transform="translate(0,0)"></path>
<path d="M 241.84 633.837 C 247.563 628.658 252.326 633.197 257.485 636.355 L 259.605 633.801 L 261.219 633.784 C 256.339 646.65 260.352 654.484 266.34 665.972 C 283.682 698.491 322.669 710.586 339.315 744.655 C 347.413 761.228 350.38 765.718 350.23 785.275 C 328.689 788.813 306.792 792.038 285.635 797.341 C 277.954 798.453 264.222 798.766 257.962 800.84 C 254.278 802.385 247.14 802.858 242.849 803.369 C 238.421 804.957 235.922 806.092 231.194 806.033 C 231.981 801.074 232.758 785.079 228.559 781.937 C 222.372 774.943 223.928 767.51 222.991 757.882 C 224.764 755.048 224.408 754.801 224.94 751.349 C 225.569 754.641 225.462 754.773 227.112 757.851 C 230.861 760.009 229.104 759.82 232.652 759.788 C 231.729 739.53 228.497 719.026 227.344 698.496 C 226.859 696.531 227.501 680.861 228.042 678.497 C 227.746 676.054 226.572 666.581 226.902 664.742 C 228.907 653.555 230.972 652.96 229.206 641.366 L 230.154 639.837 L 237.231 639.817 C 240.554 639.188 240.597 636.75 241.84 633.837 z" fill="url(#Gradient3)" transform="translate(0,0)"></path>
<path d="M 230.154 639.837 L 237.231 639.817 L 237.532 640.779 C 239.933 648.279 244.074 652.221 241.543 658.359 C 234.484 662.316 235.576 661.489 236.705 670.32 C 234.457 671.126 235.24 670.886 232.723 670.857 C 231.281 673.178 231.567 672.238 231.094 674.833 L 228.042 678.497 C 227.746 676.054 226.572 666.581 226.902 664.742 C 228.907 653.555 230.972 652.96 229.206 641.366 L 230.154 639.837 z" fill="rgb(4,2,16)" transform="translate(0,0)"></path>
<path d="M 247.319 779.034 C 246.446 779.725 247.009 779.395 245.51 779.784 C 243.511 773.363 237.92 764.16 239.034 758.324 C 240 753.261 240.163 757.356 245.127 754.494 C 249.075 761.408 247.766 767.846 250.942 771.557 C 251.231 774.013 250.984 775.234 250.738 777.691 L 247.319 779.034 z" fill="rgb(3,1,4)" transform="translate(0,0)"></path>
<path d="M 231.094 674.833 C 231.265 678.176 231.655 676.604 229.435 679.574 C 232.629 681.412 230.996 681.048 234.416 681.057 C 235.215 679.367 235.49 678.666 236.065 676.887 C 242.051 682.128 227.507 683.412 237.274 697.108 L 236.752 697.955 C 232.508 698.791 231.744 698.688 227.344 698.496 C 226.859 696.531 227.501 680.861 228.042 678.497 L 231.094 674.833 z" fill="rgb(4,2,16)" transform="translate(0,0)"></path>
<path d="M 245.127 754.494 C 250.761 747.61 245.676 747.092 247.066 737.573 L 248.079 737.187 C 250.941 743.509 251.709 764.48 250.942 771.557 C 247.766 767.846 249.075 761.408 245.127 754.494 z" fill="rgb(210,235,250)" transform="translate(0,0)"></path>
<path d="M 249.92 791.004 L 250.86 790.488 C 255.836 793.384 255.932 795.204 257.962 800.84 C 254.278 802.385 247.14 802.858 242.849 803.369 C 245.215 799.517 245.324 798.503 245.973 793.992 C 248.649 794.574 249.441 795.816 251.42 797.786 L 252.211 798.586 L 252.834 798.131 L 249.92 791.004 z" fill="rgb(210,235,250)" transform="translate(0,0)"></path>
<path d="M 247.319 779.034 L 250.738 777.691 C 251.957 779.632 252.914 781.173 254.016 783.199 C 253.039 786.609 252.266 787.484 250.86 790.488 L 249.92 791.004 C 247.092 787.657 247.807 784.279 247.319 779.034 z" fill="rgb(255,239,249)" transform="translate(0,0)"></path>
<path d="M 313.104 500.359 C 331.28 493.171 349.377 489.518 368.107 497.627 L 366.341 499.382 C 364.728 499.341 363.182 499.315 361.571 499.216 C 353.309 498.204 345.948 497.671 337.698 498.874 C 321.842 499.377 304.805 507.987 293.84 519.423 C 279.122 534.774 282.128 543.292 274.849 557.185 L 275.486 558.569 C 277.884 563.866 278.318 565.006 278.402 571.077 C 279.408 574.152 279.77 576.215 281.964 578.593 C 281.546 583.689 280.962 582.376 282.874 586.51 C 286.333 589.274 289.655 589.844 293.939 591.12 C 290.727 599.652 285.714 619.386 281.265 624.838 C 277.604 623.256 279.941 622.08 275.985 619.317 C 276.317 621.335 277.058 625.068 277.148 626.957 C 269.497 626.788 268.882 626.417 263.633 631.403 C 262.817 632.186 262.013 632.979 261.219 633.784 L 259.605 633.801 L 257.485 636.355 C 252.326 633.197 247.563 628.658 241.84 633.837 L 241.394 631.068 C 238.018 629.349 235.951 628.528 232.391 627.182 C 235.211 617.626 235.202 613.434 235.601 603.661 C 235.717 600.832 236.957 597.985 239.364 596.272 L 243.802 597.898 L 244.166 596.785 C 242.927 590.721 235.775 590.007 237.804 582.869 C 240.727 579.665 241.181 579.651 245.316 577.826 L 246.445 577.34 C 245.439 572.409 245.328 571.059 246.262 566.119 C 249.797 563.299 249.82 562.844 251.845 558.636 C 254.552 557.992 254.383 558.089 256.567 556.373 C 248.636 543.949 264.826 546.259 265.22 534.041 C 263.006 532.934 262.8 533.016 261.151 531.234 C 262.642 519.012 273.574 526.97 285.504 516.301 C 281.099 516.117 282.632 516.927 279.656 514.98 C 277.29 504.455 287.735 508.825 289.654 507.48 C 292.902 505.203 293.19 500.489 297.874 497.424 C 303.803 495.82 307.938 497.532 313.104 500.359 z" fill="rgb(4,2,16)" transform="translate(0,0)"></path>
<path d="M 278.402 571.077 C 279.408 574.152 279.77 576.215 281.964 578.593 C 281.546 583.689 280.962 582.376 282.874 586.51 C 286.333 589.274 289.655 589.844 293.939 591.12 C 290.727 599.652 285.714 619.386 281.265 624.838 C 277.604 623.256 279.941 622.08 275.985 619.317 L 276.216 618.923 C 274.801 614.72 272.775 616.281 271.171 611.538 C 275.994 613.576 276.831 612.335 282.277 610.602 L 282.138 609.192 C 278.933 607.813 276.228 607.13 274.232 604.39 L 275.825 602.016 L 274.849 600.224 C 271.064 599.537 270.533 599.407 266.945 598.052 L 266.217 596.383 C 269.891 595.64 277.156 598.816 281.122 600.197 L 281.845 599.637 L 278.311 595.423 L 278.673 592.177 L 278.739 586.081 L 276.525 581.549 C 274.026 582.076 275.191 582.173 273.017 581.463 C 273.35 577.44 272.638 579.301 275.977 576.019 L 275.736 574.61 L 270.06 570.809 C 272.865 571.11 275.587 571.447 278.402 571.077 z" fill="rgb(138,67,82)" transform="translate(0,0)"></path>
<path d="M 278.673 592.177 C 274.133 593.897 271.106 595 268.098 591.218 L 268.882 588.703 C 272.55 585.937 273.7 586.628 278.739 586.081 L 278.673 592.177 z" fill="rgb(45,34,56)" transform="translate(0,0)"></path>
<path d="M 246.262 566.119 C 245.328 571.059 245.439 572.409 246.445 577.34 L 245.316 577.826 C 241.181 579.651 240.727 579.665 237.804 582.869 C 235.775 590.007 242.927 590.721 244.166 596.785 L 243.802 597.898 L 239.364 596.272 C 236.957 597.985 235.717 600.832 235.601 603.661 C 235.202 613.434 235.211 617.626 232.391 627.182 C 235.951 628.528 238.018 629.349 241.394 631.068 L 241.84 633.837 C 240.597 636.75 240.554 639.188 237.231 639.817 L 230.154 639.837 L 229.206 641.366 C 230.972 652.96 228.907 653.555 226.902 664.742 C 226.572 666.581 227.746 676.054 228.042 678.497 C 227.501 680.861 226.859 696.531 227.344 698.496 C 228.497 719.026 231.729 739.53 232.652 759.788 C 229.104 759.82 230.861 760.009 227.112 757.851 C 225.462 754.773 225.569 754.641 224.94 751.349 C 224.408 754.801 224.764 755.048 222.991 757.882 C 222.59 753.537 222.755 748.45 220.098 745.284 L 218.936 744.3 C 216.593 739.812 219.598 735.291 218.454 729.55 C 218.081 724.7 214.362 715.963 214.534 711.567 C 214.684 707.718 216.757 700.357 217.254 695.638 C 217.124 690.048 214.282 686.382 211.474 681.254 C 214.034 674.517 214.896 672.634 215.78 665.422 L 218.992 663.186 C 219.808 658.037 220.349 648.714 220.887 643.173 C 220.965 637.406 220.75 630.396 224.789 626.342 C 229.398 621.716 224.38 623.466 226.088 616.128 C 230.676 610.192 229.744 590.459 240.031 578.286 L 241.152 576.971 C 241.648 573.798 240.957 574.114 238.809 570.547 C 241.429 569.203 243.759 567.67 246.262 566.119 z" fill="rgb(255,239,249)" transform="translate(0,0)"></path>
<path d="M 217.254 695.638 L 219.317 698.639 C 219.691 711.176 224.721 730.464 226.261 743.444 C 226.647 746.694 225.912 748.207 224.94 751.349 C 224.408 754.801 224.764 755.048 222.991 757.882 C 222.59 753.537 222.755 748.45 220.098 745.284 L 218.936 744.3 C 216.593 739.812 219.598 735.291 218.454 729.55 C 218.081 724.7 214.362 715.963 214.534 711.567 C 214.684 707.718 216.757 700.357 217.254 695.638 z" fill="rgb(3,1,4)" transform="translate(0,0)"></path>
<path d="M 215.78 665.422 L 218.992 663.186 C 218.935 672.72 218.758 681.801 220.878 691.119 C 221.461 693.682 220.281 696.116 219.317 698.639 L 217.254 695.638 C 217.124 690.048 214.282 686.382 211.474 681.254 C 214.034 674.517 214.896 672.634 215.78 665.422 z" fill="url(#Gradient2)" transform="translate(0,0)"></path>
<path d="M 230.154 639.837 C 229.767 634.348 229.317 631.608 232.391 627.182 C 235.951 628.528 238.018 629.349 241.394 631.068 L 241.84 633.837 C 240.597 636.75 240.554 639.188 237.231 639.817 L 230.154 639.837 z" fill="rgb(3,1,4)" transform="translate(0,0)"></path>
<path d="M 215.78 665.422 C 216.051 663.398 216.287 661.368 216.489 659.336 C 210.953 647.369 217.476 641.839 218.232 629.157 C 218.487 624.872 218.861 618.474 220.755 614.754 L 222.837 614.175 L 226.088 616.128 C 224.38 623.466 229.398 621.716 224.789 626.342 C 220.75 630.396 220.965 637.406 220.887 643.173 C 220.349 648.714 219.808 658.037 218.992 663.186 L 215.78 665.422 z" fill="rgb(3,1,4)" transform="translate(0,0)"></path>
<path d="M 237.023 569.037 L 238.809 570.547 C 240.957 574.114 241.648 573.798 241.152 576.971 L 240.031 578.286 C 229.744 590.459 230.676 610.192 226.088 616.128 L 222.837 614.175 C 232.437 603.417 218.517 595.088 233.173 583.723 C 234.379 577.636 235.133 574.875 237.023 569.037 z" fill="rgb(3,1,4)" transform="translate(0,0)"></path>
<path d="M 237.023 569.037 C 239.486 561.282 244.508 560.208 251.845 558.636 C 249.82 562.844 249.797 563.299 246.262 566.119 C 243.759 567.67 241.429 569.203 238.809 570.547 L 237.023 569.037 z" fill="rgb(3,1,4)" transform="translate(0,0)"></path>
<path d="M 396.827 505.964 C 404.672 503.339 408.812 501.134 414.684 508.712 C 406.644 509.443 404.538 508.325 396.827 505.964 z" fill="rgb(3,1,4)" transform="translate(0,0)"></path>
<path d="M 1246.97 14.5243 L 1248.25 16.4108 C 1198.11 60.9722 1149.25 106.958 1101.74 154.313 C 1069.43 187.02 1035.59 223.426 1003.71 257.091 L 922.87 343.658 C 905.032 362.923 887.434 382.603 868.646 400.936 C 827.527 441.057 780.887 476.527 734.487 510.246 C 774.752 512.141 815.105 510.19 854.999 504.419 C 872.32 501.986 894.552 497.126 911.1 495.453 C 839.008 590.537 731.755 602.411 622.231 619.303 C 575.935 626.443 526.833 637.846 480.807 643.257 C 490.841 624.253 497.836 612.386 488.435 591.303 C 482.012 576.878 473.398 570.079 461.844 559.88 C 466.61 553.154 487.859 546.979 496.377 543.006 C 532.038 526.369 574.545 511.908 607.339 489.995 C 607.892 489.728 608.445 489.46 608.999 489.192 C 682.196 449.132 750.326 396.284 816.698 346.64 C 857.683 316.485 898.245 285.76 938.373 254.474 C 984.134 218.613 1030.34 179.982 1076.27 144.354 C 1132.74 100.563 1190.39 58.4529 1246.97 14.5243 z" fill="url(#Gradient1)" transform="translate(0,0)"></path>
<path d="M 1196.44 0 L 1230.41 0 C 1197.01 36.2807 1133.65 79.1652 1090.91 106.183 C 1069.43 117.69 1043.91 130.332 1021.97 140.033 C 1012.51 144.213 952.617 166.99 948.312 166 L 948.434 165.034 C 957.624 162.742 966.095 158.954 974.796 155.233 C 1045.71 124.903 1111.39 80.914 1166.84 27.3174 C 1176.2 18.2756 1186.55 8.37483 1196.44 0 z" fill="rgb(241,247,252)" transform="translate(0,0)"></path>
<path d="M 1860.5 1294.63 C 1897.52 1290.4 1937.38 1289.73 1974.58 1288.28 C 1999.14 1287.32 2023.48 1285.72 2048 1284.68 L 2048 1359.8 L 2048 1483.89 L 2048 1557.8 L 2048 1574.06 L 2048 1683.57 L 2048 1695.33 C 1951.22 1683.23 1854.9 1667.76 1759.2 1648.95 C 1749.22 1647.03 1738.68 1646.25 1728.73 1644.24 C 1711.6 1632.28 1693.16 1621.3 1675.75 1609.14 C 1649.2 1590.6 1621.36 1568.73 1593.65 1552.32 C 1597.09 1547.01 1603.32 1539.31 1607.32 1533.96 L 1607.75 1534.01 C 1626.68 1496.69 1695.53 1458.13 1692.96 1411.66 C 1707.91 1418.44 1721.65 1425.67 1737.02 1431.93 C 1743.44 1414.67 1750.75 1388.62 1756.87 1370 C 1758.53 1364.04 1760.66 1355.05 1763.48 1349.87 C 1763.48 1347.45 1763.88 1344.54 1764.13 1342.09 C 1764.95 1342.54 1765.78 1342.99 1766.62 1343.42 C 1785.67 1353.25 1807.26 1348.79 1826.64 1342.83 C 1845.05 1335.09 1852.66 1329.2 1868 1316.59 C 1868.09 1312.17 1862.49 1299.59 1860.5 1294.63 z" fill="rgb(241,247,252)" transform="translate(0,0)"></path>
<path d="M 1860.5 1294.63 C 1897.52 1290.4 1937.38 1289.73 1974.58 1288.28 C 1999.14 1287.32 2023.48 1285.72 2048 1284.68 L 2048 1359.8 C 2025.31 1360.45 2002.64 1361.35 1979.97 1362.49 C 1973.21 1362.77 1956.82 1362.67 1951.1 1363.43 C 1942.75 1351.99 1938.55 1345.09 1925.44 1339.05 C 1910.57 1345.61 1908.57 1350.85 1906.57 1366.92 C 1891.18 1353.08 1890.98 1355.95 1878.56 1336.82 C 1875.12 1330.68 1870.51 1322.99 1868 1316.59 C 1868.09 1312.17 1862.49 1299.59 1860.5 1294.63 z" fill="rgb(210,235,250)" transform="translate(0,0)"></path>
<path d="M 1607.32 1533.96 L 1607.75 1534.01 C 1641.66 1564.49 1705.07 1597.37 1747.19 1615.67 C 1811.51 1643.61 1886.35 1655.75 1955.09 1667.76 C 1984.88 1672.67 2018.34 1679.88 2048 1683.57 L 2048 1695.33 C 1951.22 1683.23 1854.9 1667.76 1759.2 1648.95 C 1749.22 1647.03 1738.68 1646.25 1728.73 1644.24 C 1711.6 1632.28 1693.16 1621.3 1675.75 1609.14 C 1649.2 1590.6 1621.36 1568.73 1593.65 1552.32 C 1597.09 1547.01 1603.32 1539.31 1607.32 1533.96 z" fill="rgb(255,239,249)" transform="translate(0,0)"></path>
<path d="M 1951.1 1363.43 C 1956.82 1362.67 1973.21 1362.77 1979.97 1362.49 C 2002.64 1361.35 2025.31 1360.45 2048 1359.8 L 2048 1483.89 C 2024.69 1462.87 2002.29 1441.85 1980.4 1419.54 C 1975.25 1414.29 1983.59 1425.23 1977.91 1417.4 L 1981.47 1418.57 C 1980.6 1415.16 1954.51 1369.06 1951.1 1363.43 z" fill="rgb(129,187,255)" transform="translate(0,0)"></path>
<path d="M 1868 1316.59 C 1870.51 1322.99 1875.12 1330.68 1878.56 1336.82 C 1890.98 1355.95 1891.18 1353.08 1906.57 1366.92 C 1906.83 1369.7 1907.44 1369.67 1905.62 1371.83 C 1901.82 1376.36 1887.59 1382.41 1881.7 1383.08 L 1876.11 1385.37 L 1874.74 1387.11 C 1867.65 1386.56 1852.41 1390.55 1843.93 1391.18 C 1829.64 1393.13 1810 1392.95 1797.34 1385.8 C 1784.03 1378.28 1768.13 1364.68 1763.48 1349.87 C 1763.48 1347.45 1763.88 1344.54 1764.13 1342.09 C 1764.95 1342.54 1765.78 1342.99 1766.62 1343.42 C 1785.67 1353.25 1807.26 1348.79 1826.64 1342.83 C 1845.05 1335.09 1852.66 1329.2 1868 1316.59 z" fill="rgb(101,45,64)" transform="translate(0,0)"></path>
<path d="M 1878.56 1336.82 C 1890.98 1355.95 1891.18 1353.08 1906.57 1366.92 C 1906.83 1369.7 1907.44 1369.67 1905.62 1371.83 C 1901.82 1376.36 1887.59 1382.41 1881.7 1383.08 L 1876.11 1385.37 L 1874.74 1387.11 C 1867.65 1386.56 1852.41 1390.55 1843.93 1391.18 C 1842.06 1382.83 1837.36 1373.15 1833.87 1365.14 C 1838.79 1361.86 1842.86 1358.97 1848.3 1356.53 C 1856.26 1350.21 1869.68 1342.32 1878.56 1336.82 z" fill="rgb(160,89,102)" transform="translate(0,0)"></path>
<path d="M 1833.87 1365.14 C 1838.79 1361.86 1842.86 1358.97 1848.3 1356.53 C 1852.46 1370.46 1860.87 1377.4 1875.45 1380.08 C 1878.96 1380.73 1879.06 1380.79 1881.7 1383.08 L 1876.11 1385.37 L 1874.74 1387.11 C 1867.65 1386.56 1852.41 1390.55 1843.93 1391.18 C 1842.06 1382.83 1837.36 1373.15 1833.87 1365.14 z" fill="rgb(138,67,82)" transform="translate(0,0)"></path>
<path d="M 1925.44 1339.05 C 1938.55 1345.09 1942.75 1351.99 1951.1 1363.43 C 1954.51 1369.06 1980.6 1415.16 1981.47 1418.57 L 1977.91 1417.4 C 1974.68 1414.62 1966.01 1411.29 1961.65 1410.48 C 1922.33 1403.15 1902.4 1429.32 1876.11 1385.37 L 1881.7 1383.08 C 1887.59 1382.41 1901.82 1376.36 1905.62 1371.83 C 1907.44 1369.67 1906.83 1369.7 1906.57 1366.92 C 1908.57 1350.85 1910.57 1345.61 1925.44 1339.05 z" fill="rgb(241,247,252)" transform="translate(0,0)"></path>
<path d="M 1846.67 1486.9 C 1911.96 1488.44 1938.9 1509.87 1993.67 1537.67 C 2010.67 1546.3 2029.97 1551.83 2048 1557.8 L 2048 1574.06 C 2012.74 1558.19 1978.17 1542.95 1943.21 1526.27 C 1913.5 1512.11 1877.6 1498.68 1846.67 1486.9 z" fill="rgb(210,235,250)" transform="translate(0,0)"></path>
<path d="M 1876.11 1385.37 C 1902.4 1429.32 1922.33 1403.15 1961.65 1410.48 C 1966.01 1411.29 1974.68 1414.62 1977.91 1417.4 C 1969.92 1415.2 1954.88 1410.74 1946.97 1411.17 C 1914.36 1412.97 1893.56 1422.61 1874.74 1387.11 L 1876.11 1385.37 z" fill="rgb(45,34,56)" transform="translate(0,0)"></path>
<metadata><recraft-signature>{"signed_by": "recraft", "signature_b64": "N3CpfTwhIQafb2exVdEJB3m6UcCNv9luUg+IFLrpsm4odmuKpW8DGc5iiN+wE79HPovDVhIdzvRG+LA6sWSkBA==", "signing_algo": "Ed25519", "generation_timestamp": 1775538305, "identifier": "77fcfe85-1f83-4a44-90a0-5559d8d8d057"}</recraft-signature></metadata></g></svg>